<svg width="101" height="68" viewBox="0 0 101 68" fill="none" xmlns="http://www.w3.org/2000/svg">
<g clip-path="url(#clip0)">
<path d="M92.8135 67.2832C88.1783 67.2832 85.4291 64.9112 85.2188 61.4946H89.6509C89.6509 62.6335 90.2819 64.1495 93.0239 64.2438C94.9244 64.2438 95.9762 63.105 95.9762 62.249C95.7658 60.9216 94.0757 60.8273 92.3928 60.5371C90.4923 60.2615 89.0198 59.877 87.9607 59.4055C86.4882 58.6439 85.6395 57.0263 85.6395 55.3216C85.6395 52.2823 88.1783 49.9102 92.6032 49.9102C96.8249 49.9102 99.5669 52.0937 99.77 55.4159H95.5555C95.5555 54.5672 95.3451 53.1382 92.8135 53.1382C91.1234 53.1382 90.0716 53.4211 89.8612 54.6543C89.8612 56.3662 93.4446 56.2719 96.1866 56.932C98.7182 57.5993 100.408 59.2097 100.408 61.4946C100.408 65.6728 97.0353 67.2832 92.8135 67.2832Z" fill="black"/>
<path d="M69.8186 58.5786C69.8186 61.2335 71.9294 63.4169 74.6714 63.4169C77.203 63.4169 79.517 61.2335 79.517 58.5786C79.517 56.018 77.203 53.7403 74.6714 53.7403C71.9294 53.7403 69.8186 56.018 69.8186 58.5786ZM74.4538 67.3123C69.6082 67.3123 65.8145 63.4169 65.8145 58.5786C65.8145 53.7403 69.6082 49.9393 74.4538 49.9393C76.3543 49.9393 78.0444 50.418 79.517 51.4553V50.1279H83.5284V66.9278H79.517V65.8832C78.0444 66.8335 76.3543 67.3123 74.4538 67.3123Z" fill="black"/>
<path d="M50.428 58.5786C50.428 61.2335 52.7492 63.4169 55.2808 63.4169C58.0227 63.4169 60.1336 61.2335 60.1336 58.5786C60.1336 56.018 58.0227 53.7403 55.2808 53.7403C52.7492 53.7403 50.428 56.018 50.428 58.5786ZM60.1336 44.3393H64.3481V66.9278H60.1336V65.8832C58.8642 66.8335 57.174 67.3123 55.2808 67.3123C50.428 67.3123 46.4238 63.4169 46.4238 58.5786C46.4238 53.7403 50.428 49.9393 55.2808 49.9393C57.174 49.9393 58.8642 50.418 60.1336 51.4553V44.3393Z" fill="black"/>
<path d="M42.6484 66.7793V49.8778V66.7793Z" fill="black"/>
<path d="M42.6484 66.7793V49.8778" stroke="black" stroke-width="0.2"/>
<path d="M24.6994 58.5786C24.6994 61.2335 26.8103 63.4169 29.5523 63.4169C32.0766 63.4169 34.4051 61.2335 34.4051 58.5786C34.4051 56.018 32.0766 53.7403 29.5523 53.7403C26.8103 53.7403 24.6994 56.018 24.6994 58.5786ZM29.3419 67.3123C24.4891 67.3123 20.6953 63.4169 20.6953 58.5786C20.6953 53.7403 24.4891 49.9393 29.3419 49.9393C31.2351 49.9393 32.9253 50.418 34.4051 51.4553V44.3393H38.6196V66.9278H34.4051V65.8832C32.9253 66.8335 31.2351 67.3123 29.3419 67.3123Z" fill="black"/>
<path d="M5.29514 58.5786C5.29514 61.2335 7.61637 63.4169 10.1407 63.4169C12.8899 63.4169 14.9935 61.2335 14.9935 58.5786C14.9935 56.018 12.8899 53.7403 10.1407 53.7403C7.61637 53.7403 5.29514 56.018 5.29514 58.5786ZM9.93035 67.3123C5.29514 67.3123 1.29102 63.4169 1.29102 58.5786C1.29102 53.7403 5.29514 49.9393 9.93035 49.9393C11.8309 49.9393 13.521 50.418 14.9935 51.4553V50.1279H19.2153V66.9278H14.9935V65.8832C13.7314 66.8335 11.8309 67.3123 9.93035 67.3123Z" fill="black"/>
<path d="M12.0488 39.2511L26.6 30.8003L34.4052 44.1909H14.7908" fill="black"/>
<path d="M29.1328 24.1582L43.8944 15.809L60.1358 44.186H44.7358V48.3643H40.5214V44.186" fill="black"/>
<path d="M66.2513 44.1868L46.0059 8.87505L60.5571 0.330023L85.8657 44.1868" fill="black"/>
<path d="M98.1079 47.5527L97.6872 46.6025H97.2664V47.5527H96.9473V45.275H97.8975C98.1079 45.275 98.5286 45.5652 98.5286 45.9424C98.5286 46.3196 98.3182 46.5082 98.1079 46.6025L98.5286 47.5527H98.1079ZM97.6872 45.5652H97.2664V46.3196H97.6872C98.1079 46.3196 98.1079 46.2253 98.1079 45.9424C98.1079 45.7465 98.1079 45.5652 97.6872 45.5652Z" fill="black"/>
<path d="M97.6734 48.4956C96.6143 48.4956 95.5625 47.5454 95.5625 46.4065C95.5625 45.2676 96.6143 44.3174 97.6734 44.3174C98.9355 44.3174 99.7842 45.2676 99.7842 46.4065C99.7842 47.5454 98.9355 48.4956 97.6734 48.4956ZM97.6734 44.6075C96.6143 44.6075 95.9832 45.4562 95.9832 46.4065C95.9832 47.3568 96.6143 48.2127 97.6734 48.2127C98.7252 48.2127 99.3562 47.3568 99.3562 46.4065C99.3562 45.4562 98.7252 44.6075 97.6734 44.6075Z" fill="black"/>
</g>
<defs>
<clipPath id="clip0">
<rect width="99.7796" height="67.49" fill="white" transform="translate(0.96875)"/>
</clipPath>
</defs>
</svg>
