<svg width="49" height="68" viewBox="0 0 49 68" fill="none" xmlns="http://www.w3.org/2000/svg">
<g clip-path="url(#clip0)">
<path d="M6.56367 61.3282L5.99053 57.9332C5.82704 56.9546 5.61809 55.4253 5.45885 54.366H5.39666C5.22917 55.4333 4.99525 57.006 4.82352 57.9414L4.2068 61.3282H6.56367ZM3.89891 63.5405L3.15403 67.3082H0.402344L3.83483 51.6331H7.20725L10.3252 67.3082H7.55919L6.83081 63.5405H3.89891Z" fill="black"/>
<path d="M16.5887 60.3063C16.5887 60.0974 16.5887 59.8531 16.5473 59.6295C16.4377 58.8557 16.0259 58.1586 15.3638 58.1586C14.2278 58.1586 13.8099 59.7951 13.8099 61.7091C13.8099 63.9084 14.4057 65.1602 15.3244 65.1602C15.7444 65.1602 16.2285 64.9449 16.4914 64.022C16.5555 63.838 16.5887 63.5918 16.5887 63.3042V60.3063ZM19.413 51.2171V64.0575C19.413 65.0752 19.4648 66.3273 19.5063 67.3058H17.0669L16.9077 66H16.8497C16.4401 66.8052 15.5484 67.4898 14.4827 67.4898C12.1468 67.4898 10.9883 64.9119 10.9883 61.6571C10.9883 57.691 12.7157 55.7624 14.5986 55.7624C15.5835 55.7624 16.2208 56.2446 16.5416 56.9422H16.5892V51.2171H19.413Z" fill="black"/>
<path d="M25.2949 65.3238C26.3729 65.3238 26.6398 63.292 26.6398 61.6098C26.6398 60.0105 26.3729 57.9266 25.2475 57.9266C24.0556 57.9266 23.8051 60.0105 23.8051 61.6098C23.8051 63.5403 24.1196 65.3238 25.2699 65.3238H25.2949ZM25.2412 67.4901C22.6384 67.4901 21.0059 65.4003 21.0059 61.6597C21.0059 57.5773 23.1017 55.7627 25.3074 55.7627C27.8751 55.7627 29.4848 57.9542 29.4848 61.5935C29.4848 66.2696 26.9627 67.4901 25.264 67.4901H25.2412Z" fill="black"/>
<path d="M33.8882 63.2505C33.8882 63.5339 33.94 63.7989 34.0001 63.9765C34.2835 64.9265 34.7635 65.1602 35.1482 65.1602C36.2408 65.1602 36.6816 63.7758 36.6816 61.5619C36.6816 59.5466 36.2158 58.1586 35.1357 58.1586C34.6001 58.1586 34.1489 58.7403 33.9937 59.365C33.9398 59.5615 33.8882 59.8675 33.8882 60.0785V63.2505ZM31.0637 51.2171H33.8879V57.1344H33.9334C34.4898 56.2611 35.2307 55.7624 36.3065 55.7624C38.4356 55.7624 39.5053 58.1834 39.5053 61.349C39.5053 65.3487 37.91 67.4898 35.8429 67.4898C34.858 67.4898 34.2022 67.053 33.6104 65.9466H33.5508L33.3937 67.3058H30.9688C31.0102 66.3645 31.0637 65.0752 31.0637 64.0575V51.2171Z" fill="black"/>
<path d="M46.2729 60.5443C46.2875 58.9493 45.8197 57.8315 44.9238 57.8315C43.9017 57.8315 43.467 59.3278 43.4362 60.5443H46.2729ZM43.4258 62.5412C43.459 64.5956 44.5391 65.2641 45.8798 65.2641C46.7299 65.2641 47.4583 65.0754 47.9963 64.8731L48.377 66.9048C47.6279 67.2273 46.4713 67.4302 45.3622 67.4302C42.3311 67.4302 40.6758 65.3588 40.6758 61.8211C40.6758 58.0244 42.5959 55.7441 45.1036 55.7441C47.5264 55.7441 48.8691 57.7594 48.8691 61.0491C48.8691 61.8022 48.838 62.2265 48.7883 62.5572L43.4258 62.5412Z" fill="black"/>
<path d="M30.8066 0H48.8734V43.2534L30.8066 0Z" fill="#ED1C24"/>
<path d="M18.0772 -0.000427246H0V43.253L18.0772 -0.000427246Z" fill="#ED1C24"/>
<path d="M16.541 34.551L24.4427 15.9377L35.9526 43.2511H28.4111L24.968 34.551H16.541Z" fill="#ED1C24"/>
</g>
<defs>
<clipPath id="clip0">
<rect width="48.87" height="67.49" fill="white"/>
</clipPath>
</defs>
</svg>
