<svg width="224" height="68" viewBox="0 0 224 68" fill="none" xmlns="http://www.w3.org/2000/svg">
<g clip-path="url(#clip0)">
<path fill-rule="evenodd" clip-rule="evenodd" d="M138.939 52.7792C125.924 62.3719 107.061 67.4899 90.8195 67.4899C68.0466 67.4899 47.5452 59.0671 32.0351 45.0583C30.8165 43.9567 31.9083 42.4554 33.3706 43.3133C50.1091 53.0522 70.8055 58.9111 92.1843 58.9111C106.603 58.9111 122.464 55.928 137.048 49.7376C139.251 48.8018 141.093 51.1804 138.939 52.7792Z" fill="#FF9900"/>
<path fill-rule="evenodd" clip-rule="evenodd" d="M144.348 46.5888C142.691 44.4636 133.351 45.5847 129.16 46.0819C127.882 46.2379 127.687 45.1265 128.838 44.3271C136.276 39.0921 148.481 40.6032 149.905 42.3579C151.328 44.1224 149.534 56.357 142.544 62.1964C141.472 63.0933 140.448 62.6156 140.926 61.4263C142.496 57.5073 146.015 48.7238 144.348 46.5888Z" fill="#FF9900"/>
<path fill-rule="evenodd" clip-rule="evenodd" d="M129.453 7.37V2.28121C129.453 1.51106 130.038 0.994385 130.74 0.994385H153.522C154.253 0.994385 154.838 1.52081 154.838 2.28121V6.63886C154.829 7.37 154.214 8.32537 153.123 9.83641L141.317 26.6918C145.704 26.5846 150.334 27.2378 154.312 29.48C155.209 29.9869 155.452 30.7278 155.521 31.4589V36.8889C155.521 37.6298 154.702 38.4975 153.844 38.049C146.835 34.3738 137.525 33.9741 129.775 38.088C128.985 38.517 128.156 37.6591 128.156 36.9182V31.7611C128.156 30.9325 128.166 29.5189 128.995 28.2614L142.672 8.64708H130.769C130.038 8.64708 129.453 8.1304 129.453 7.37Z" fill="black"/>
<path fill-rule="evenodd" clip-rule="evenodd" d="M46.3452 39.1215H39.4139C38.751 39.0727 38.2245 38.5755 38.1758 37.9419V2.36904C38.1758 1.65738 38.7705 1.09196 39.5113 1.09196H45.9747C46.6474 1.12118 47.1835 1.63788 47.2323 2.28129V6.93141H47.359C49.0455 2.43727 52.2138 0.341309 56.4838 0.341309C60.8219 0.341309 63.532 2.43727 65.4818 6.93141C67.1585 2.43727 70.9703 0.341309 75.055 0.341309C77.9601 0.341309 81.1381 1.54039 83.0781 4.23102C85.2715 7.22386 84.8231 11.5718 84.8231 15.3835L84.8134 37.8346C84.8134 38.5463 84.2187 39.1215 83.4778 39.1215H76.5562C75.8641 39.0727 75.3084 38.5171 75.3084 37.8346V18.9807C75.3084 17.4794 75.4449 13.736 75.1134 12.3127C74.5968 9.92424 73.0467 9.25158 71.0385 9.25158C69.3617 9.25158 67.607 10.3727 66.8953 12.1664C66.1837 13.9602 66.2519 16.9628 66.2519 18.9807V37.8346C66.2519 38.5463 65.6572 39.1215 64.9163 39.1215H57.9948C57.2929 39.0727 56.747 38.5171 56.747 37.8346L56.7372 18.9807C56.7372 15.013 57.3904 9.17359 52.4673 9.17359C47.4858 9.17359 47.6807 14.8668 47.6807 18.9807V37.8346C47.6807 38.5463 47.0861 39.1215 46.3452 39.1215" fill="black"/>
<path fill-rule="evenodd" clip-rule="evenodd" d="M174.453 0.341309C184.738 0.341309 190.305 9.17359 190.305 20.404C190.305 31.2543 184.153 39.8624 174.453 39.8624C164.354 39.8624 158.855 31.0301 158.855 20.0238C158.855 8.94937 164.422 0.341309 174.453 0.341309ZM174.512 7.60406C169.404 7.60406 169.082 14.5646 169.082 18.9028C169.082 23.2507 169.014 32.5314 174.453 32.5314C179.825 32.5314 180.078 25.0444 180.078 20.482C180.078 17.4794 179.952 13.8919 179.045 11.0453C178.265 8.56918 176.715 7.60406 174.512 7.60406Z" fill="black"/>
<path fill-rule="evenodd" clip-rule="evenodd" d="M203.64 39.1215H196.738C196.046 39.0727 195.49 38.5171 195.49 37.8346L195.48 2.25205C195.539 1.59888 196.114 1.09196 196.816 1.09196H203.24C203.845 1.12118 204.342 1.53065 204.478 2.08632V7.52607H204.605C206.545 2.66149 209.265 0.341309 214.052 0.341309C217.161 0.341309 220.193 1.46241 222.143 4.53323C223.956 7.37984 223.956 12.1664 223.956 15.6077V38.0004C223.878 38.6243 223.303 39.1215 222.621 39.1215H215.67C215.036 39.0727 214.51 38.6048 214.442 38.0004V18.6785C214.442 14.7888 214.89 9.0956 210.103 9.0956C208.417 9.0956 206.867 10.2264 206.097 11.9422C205.122 14.1162 204.995 16.2804 204.995 18.6785V37.8346C204.985 38.5463 204.381 39.1215 203.64 39.1215" fill="black"/>
<path fill-rule="evenodd" clip-rule="evenodd" d="M111.291 22.1295C111.291 24.8298 111.359 27.0818 109.994 29.4799C108.892 31.4297 107.138 32.6288 105.198 32.6288C102.536 32.6288 100.977 30.601 100.977 27.6082C100.977 21.7005 106.27 20.6282 111.291 20.6282V22.1295ZM118.28 39.0239C117.822 39.4333 117.159 39.4626 116.643 39.1896C114.342 37.2789 113.923 36.3917 112.665 34.5687C108.863 38.4487 106.163 39.6088 101.24 39.6088C95.4003 39.6088 90.8672 36.0115 90.8672 28.8073C90.8672 23.1823 93.9088 19.3511 98.2567 17.4793C102.02 15.8221 107.274 15.5296 111.291 15.0714V14.1746C111.291 12.527 111.417 10.5773 110.442 9.15399C109.604 7.87691 107.986 7.35049 106.553 7.35049C103.911 7.35049 101.561 8.70555 100.986 11.5132C100.869 12.1371 100.411 12.7512 99.7775 12.7805L93.0606 12.0591C92.4952 11.9324 91.8616 11.4742 92.0273 10.6065C93.5676 2.45667 100.938 0 107.528 0C110.901 0 115.307 0.896878 117.968 3.45102C121.342 6.59984 121.02 10.8015 121.02 15.3736V26.1751C121.02 29.4214 122.365 30.8447 123.632 32.5995C124.071 33.2234 124.169 33.9741 123.603 34.442C122.19 35.6216 119.674 37.815 118.29 39.0434L118.28 39.0238" fill="black"/>
<path fill-rule="evenodd" clip-rule="evenodd" d="M20.4234 22.1297C20.4234 24.8301 20.4917 27.082 19.1269 29.4802C18.0253 31.4299 16.2803 32.629 14.3305 32.629C11.6691 32.629 10.1191 30.6013 10.1191 27.6084C10.1191 21.7008 15.4126 20.6284 20.4234 20.6284V22.1297ZM27.4132 39.0241C26.955 39.4336 26.2921 39.4628 25.7754 39.1898C23.4748 37.2791 23.0653 36.392 21.798 34.569C17.996 38.4489 15.3054 39.609 10.3726 39.609C4.54287 39.609 0 36.0118 0 28.8075C0 23.1826 3.05133 19.3513 7.38948 17.4796C11.1525 15.8223 16.407 15.5299 20.4234 15.0717V14.1748C20.4234 12.5273 20.5502 10.5775 19.585 9.15424C18.7369 7.87716 17.1186 7.35073 15.6953 7.35073C13.0535 7.35073 10.6943 8.70579 10.1191 11.5134C10.0021 12.1373 9.54393 12.7515 8.92002 12.7807L2.19345 12.0593C1.62802 11.9326 1.00411 11.4744 1.16009 10.6068C2.71013 2.45691 10.0704 0.000244141 16.6605 0.000244141C20.0335 0.000244141 24.4399 0.897122 27.1013 3.45127C30.4743 6.60008 30.1526 10.8018 30.1526 15.3739V26.1754C30.1526 29.4217 31.4979 30.845 32.7652 32.5998C33.2137 33.2237 33.3112 33.9743 32.7457 34.4422C31.3322 35.6218 28.817 37.8153 27.4327 39.0436L27.4132 39.0241" fill="black"/>
</g>
<defs>
<clipPath id="clip0">
<rect width="223.956" height="67.49" fill="white"/>
</clipPath>
</defs>
</svg>
