<svg width="283" height="68" viewBox="0 0 283 68" fill="none" xmlns="http://www.w3.org/2000/svg">
<g clip-path="url(#clip0)">
<path d="M66.4589 63.4947H50.7653L45.9643 51.9148H19.8091L15.4351 63.4947H0L23.5812 5.00928H40.475L66.4589 63.4947ZM32.2429 18.9846L23.6678 41.7087H41.6765L32.2429 18.9846Z" fill="black"/>
<path d="M123.466 5.00928H136.157V63.4947H121.577V26.963L105.799 45.3127H103.57L87.7927 26.963V63.494H73.2129V5.00928H85.9042L104.684 26.7048L123.466 5.00928Z" fill="black"/>
<path d="M173.101 5.00928C194.452 5.00928 205.427 18.2994 205.427 34.3355C205.427 51.143 194.795 63.4947 171.47 63.4947H147.287V5.00928H173.101ZM161.866 52.7754H171.383C186.047 52.7754 190.421 42.8257 190.421 34.2488C190.421 24.2146 185.018 15.7272 171.211 15.7272H161.865V52.7754H161.866Z" fill="black"/>
<path d="M234.432 18.8767L216.049 0.490234H282.973V67.4168L264.59 49.0324V18.8767H234.432Z" fill="black"/>
<path d="M234.411 22.561L215.484 41.4869V67.9799H241.974L260.899 49.054H234.411V22.561Z" fill="black"/>
</g>
<defs>
<clipPath id="clip0">
<rect width="282.973" height="67.49" fill="white" transform="translate(0 0.490234)"/>
</clipPath>
</defs>
</svg>
