<svg width="323" height="68" viewBox="0 0 323 68" fill="none" xmlns="http://www.w3.org/2000/svg">
<g clip-path="url(#clip0)">
<path d="M53.4461 61.1629C38.5039 61.1629 26.3943 49.0469 26.3943 34.1019C26.3943 19.156 38.5039 7.05163 53.4461 7.05163C58.7128 7.05163 63.6299 8.55368 67.7837 11.1573L53.4461 34.1019L80.4381 18.5165C77.5055 13.844 73.2994 9.81791 68.2136 6.76279C61.7418 2.88814 52.7391 0.490234 42.7843 0.490234C28.5841 0.490234 16.1262 5.65041 9.17872 13.378C4.03502 19.0906 0.972656 26.2803 0.972656 34.1015C0.972656 41.9283 4.03502 49.1232 9.17872 54.8398C16.1442 62.577 28.4166 67.7071 42.3826 67.7071C56.3466 67.7071 68.6153 62.573 75.5853 54.8398C75.9669 54.4139 76.3365 53.9841 76.686 53.5382L75.6335 49.5932C70.7364 56.5833 62.6256 61.1629 53.4461 61.1629Z" fill="#BF1920"/>
<path d="M142.934 66.0801L131.606 23.8185C129.786 16.9892 123.567 11.9696 116.163 11.9696C114.243 11.9696 112.403 12.3127 110.696 12.9337L86.3072 21.8023H111.391L115.677 37.8102C111.519 34.2317 106.104 32.0543 100.175 32.0543C88.4002 32.0543 78.8672 39.9446 78.8672 49.6776C78.8672 59.4115 88.4002 67.3134 100.175 67.3134C108.651 67.3134 116.147 63.1636 120.771 56.7882L123.258 66.0801H142.934ZM108.378 59.5159C102.947 59.5159 98.5437 55.117 98.5437 49.6776C98.5437 44.2463 102.947 39.8434 108.378 39.8434C113.809 39.8434 118.216 44.2463 118.216 49.6776C118.216 55.117 113.809 59.5159 108.378 59.5159Z" fill="#BF1920"/>
<path d="M189.125 11.9768C187.638 11.9768 186.232 12.3054 184.979 12.8939L169.32 20.1917C168.544 15.5301 164.495 11.9768 159.61 11.9768C158.132 11.9768 156.722 12.3054 155.452 12.8939L136.334 21.8022H149.776V66.0805H169.452V26.7282C169.452 24.0129 171.65 21.8026 174.373 21.8026C177.081 21.8026 179.295 24.0129 179.295 26.7282V66.0805H198.963V21.8022C198.963 16.3721 194.556 11.9772 189.125 11.9772" fill="#BF1920"/>
<path d="M262.902 39.8429C262.902 55.2335 250.428 67.7071 235.042 67.7071C219.644 67.7071 207.162 55.2335 207.162 39.8429C207.162 24.4564 219.644 11.9768 235.042 11.9768C250.428 11.9768 262.902 24.4568 262.902 39.8429ZM236.195 20.4339C235.319 17.1551 231.949 15.2087 228.671 16.0901C225.396 16.9679 223.44 20.3403 224.32 23.6188L233.877 59.2507C234.761 62.5328 238.123 64.4772 241.401 63.6095C244.679 62.7216 246.628 59.3512 245.748 56.0731L236.195 20.4339Z" fill="#BF1920"/>
<path d="M312.52 11.9768C311.029 11.9768 309.615 12.3054 308.342 12.8939L292.698 20.1917C291.927 15.5301 287.878 11.9768 282.993 11.9768C281.514 11.9768 280.104 12.3054 278.831 12.8939L259.721 21.8022H273.158V66.0805H292.831V26.7282C292.831 24.0129 295.032 21.8026 297.756 21.8026C300.472 21.8026 302.669 24.0129 302.669 26.7282V66.0805H322.354V21.8022C322.354 16.3721 317.943 11.9772 312.52 11.9772" fill="#BF1920"/>
</g>
<defs>
<clipPath id="clip0">
<rect width="321.381" height="67.49" fill="white" transform="translate(0.972656 0.490234)"/>
</clipPath>
</defs>
</svg>
