<svg width="203" height="68" viewBox="0 0 203 68" fill="none" xmlns="http://www.w3.org/2000/svg">
<path d="M168.865 56.8316C168.862 56.8316 168.246 57.3804 168.246 57.3804C167.367 58.1666 166.462 59.0084 165.369 58.5874C165.067 58.4776 164.855 58.0756 164.804 57.7636C164.754 55.5131 165.768 53.4278 166.751 51.3975L167.003 50.8665C169.83 46.1463 173.116 40.5845 177.942 36.7246C178.755 36.1378 179.637 35.6448 180.569 36.0293C180.783 36.2301 181.032 36.5781 181.032 36.9253C181.032 37.0356 180.935 37.3281 180.878 37.4191C179.53 39.5972 178.247 41.884 176.998 44.0792C174.559 48.4157 172.028 52.8977 168.865 56.8321L168.865 56.8316ZM142.716 45.7077C142.531 45.8364 139.271 44.7382 138.641 41.7195C138.106 39.1205 139.896 37.0898 141.628 36.0661C142.371 35.4803 143.49 35.2796 144.312 35.5711C145.074 36.0841 145.28 36.9996 145.28 37.986C145.28 38.591 145.2 39.2125 145.129 39.7795C145.129 39.7795 145.116 39.8898 145.114 39.908C144.57 41.9382 143.739 43.9328 142.716 45.7078L142.716 45.7077ZM130.262 57.9846C129.929 57.4906 129.819 56.9504 129.808 56.3664C129.744 52.779 133.604 46.3545 136.329 42.8545H136.335C137.476 45.3545 140.062 46.9615 141.623 47.6387C139.684 51.9569 133.036 61.2046 130.263 57.9846H130.262ZM177.316 58.6216C176.67 59.0606 175.764 58.7231 176.103 57.7171C176.947 55.1556 180.304 49.9357 180.304 49.9357L189.652 33.3538H183.249C182.944 33.8538 182.293 35.002 182.293 35.002C181.997 34.5085 181.111 33.411 180.746 33.174C179.182 32.1852 176.886 32.6527 175.303 33.549C168.418 37.5747 163.395 45.5289 159.433 51.7309C159.433 51.7309 155.263 58.6258 152.948 59.1386C151.141 59.2851 151.327 56.8506 151.405 56.2834C152.104 52.1845 153.727 48.2877 155.362 44.7565C158.687 42.4513 162.482 39.4325 165.931 36.1211C173.415 28.9666 179.725 20.8612 180.647 19.0502C180.647 19.0502 179.648 19.2517 178.47 19.2879C172.712 27.3199 160.929 38.9938 157.357 40.7308C158.939 36.9246 169.164 18.7569 177.865 10.067L179.234 8.74918C181.351 6.6817 183.545 4.55941 185.254 4.21171C185.434 4.19351 185.667 4.21171 185.868 4.63321C185.944 6.243 185.345 7.43239 184.657 8.78618L183.694 10.7625C183.694 10.7625 185.059 10.5062 185.955 10.2127C186.995 8.25594 188.146 6.05975 187.722 3.44397C187.58 2.60223 186.971 1.96198 186.175 1.81548C183.579 1.32148 180.751 3.24197 178.475 4.79766L178.383 4.85216C166.683 14.0186 156.803 27.229 148.165 45.2689C147.539 45.7439 145.12 46.3117 144.709 46.0369C145.562 44.2809 146.636 41.9201 147.173 39.3587C147.266 38.6267 147.353 37.8769 147.353 37.1453C147.353 35.5705 146.975 34.0891 145.564 33.0648C143.91 32.2413 141.866 32.6258 140.488 33.2475C134.313 35.809 129.699 42.14 126.369 47.3534C124.578 50.6659 122.792 54.2136 122.297 58.2764C121.949 61.4593 122.658 63.5085 124.468 64.5335C126.329 65.4843 128.672 64.496 129.592 64.0208C135.847 60.7276 140.218 54.123 143.663 48.0849C143.8 48.0669 145.681 48.0124 147.104 47.6459C147.123 47.6459 147.131 47.6459 147.162 47.6651C147.081 47.9383 146.345 50.1346 146.345 50.1346C144.162 56.5377 143.152 60.8925 145.215 63.4725C148.162 67.1137 153.041 63.345 157.01 58.3675C156.158 64.332 159.25 65.2655 161.606 64.8085C164.313 64.077 167.329 61.1855 168.729 59.704C168.279 61.4418 168.401 64.5525 170.864 64.8632C172.551 65.1752 173.814 64.2572 175.276 63.4702C180.518 60.6157 186.794 51.1043 188.423 48.3543H186.287C183.971 51.8545 181.023 56.4437 177.316 58.6222L177.316 58.6216ZM96.5551 23.1038H102.555L105.941 17.6039H99.94L96.5551 23.1038ZM192.395 8.49293C187.821 11.0914 183.079 12.7742 177.338 12.1889C175.747 13.9824 174.198 15.8301 172.77 17.7327C180.827 19.7819 189.369 15.2262 194.133 10.8905C199.172 6.51755 201.756 1.01088 201.756 1.01088C201.756 1.01088 197.979 5.32835 192.395 8.49303L192.395 8.49293ZM141.946 7.10294C140.992 18.0439 132.487 24.4668 130.383 24.9778C129.108 25.2336 126.932 24.6668 128.874 20.0751C131.735 13.8903 136.619 8.64013 141.859 5.95015C141.986 6.40765 141.983 6.69965 141.946 7.10264L141.946 7.10294ZM125.374 34.6748C124.765 33.3578 123.318 32.516 121.777 32.6073C116.771 33.065 111.875 37.1814 109.304 43.0912C107.955 46.1287 107.219 48.635 106.736 52.6234C108.292 50.8309 111.467 47.8854 115.07 46.2752C115.07 46.2752 115.56 42.4514 118.06 39.0482C119.006 37.639 120.9 35.3705 123.025 35.9741C124.883 36.5966 124.23 41.7378 121.761 46.713C119.935 50.3728 117.14 54.0329 114.312 56.5571C111.812 58.6796 108.112 61.2409 104.876 59.2651C102.838 58.0581 101.798 55.5326 102.018 52.276C102.992 43.0368 107.197 35.1691 113.215 26.2041C119.421 17.8794 126.262 9.33523 135.478 4.77826C137.358 3.82701 139.099 3.60746 140.604 4.19301C140.604 4.19301 131.953 8.94998 127.829 17.7509C126.78 19.9834 125.321 23.0014 126.79 25.6729C127.558 27.0631 128.921 27.1731 130.018 27.0999C135.073 25.9287 138.339 21.2084 141.007 16.8909C142.554 13.616 143.929 10.3592 143.929 6.736C143.929 6.297 143.906 5.7118 143.869 5.2722C146.284 3.99201 151.236 6.2602 151.236 6.2602C155.106 7.54139 163.346 13.8539 166.125 15.0609C167.481 13.4878 169.709 11.1095 170.963 9.91997L169.147 8.80378C166.24 7.02899 163.166 5.3456 160.141 3.68081C153.272 -0.0693619 147.68 1.24763 144.834 2.27232C143.715 2.67457 142.693 3.02232 142.693 3.02232C140.581 0.717133 137.117 0.936132 134.565 1.55863C125.386 4.19311 116.865 10.6148 107.729 21.7575C101.012 30.4849 96.8451 38.0234 94.6251 45.4693C92.9133 50.4821 92.3931 57.8553 96.5711 62.2282C100.123 65.9412 104.834 65.137 108.16 63.8017C115.367 60.2523 121.844 52.6038 125.072 43.8039C125.851 41.1879 126.715 37.4921 125.374 34.6741L125.374 34.6748ZM45.4894 26.186C45.4774 26.2225 44.2654 29.0032 44.2654 29.0032C44.0901 29.1495 43.8132 29.0765 43.4957 29.0032L42.9517 28.9112C41.2435 28.381 39.9549 27.2464 39.5577 25.8927C39.0097 23.2579 41.2605 21.1906 42.2522 20.4408C43.2037 19.7815 44.6829 19.434 45.5419 20.1113C46.0717 20.7335 46.2724 21.5383 46.2724 22.417C46.2727 23.606 45.9057 24.9415 45.4894 26.186H45.4894ZM42.8859 31.473C42.8859 31.473 42.8309 31.6382 42.8037 31.6922C42.7967 31.6922 40.0487 36.1742 40.0487 36.1742C38.3902 38.3884 36.3195 41.1702 33.731 42.5052C32.9637 42.7614 31.9032 42.9264 31.3628 42.2499C30.217 40.8774 30.8075 38.9747 31.2873 37.438L31.457 36.889C32.8325 33.157 35.015 29.863 37.1392 26.807C37.1657 26.789 37.2252 26.7708 37.2467 26.7708C37.2517 26.7891 37.2602 26.7891 37.2639 26.8258C38.5969 29.3868 41.0964 30.5756 42.9657 31.1253C42.977 31.1253 42.989 31.1435 42.989 31.1803C42.9892 31.2348 42.9587 31.3085 42.886 31.4725L42.8859 31.473ZM77.2617 28.5275C78.4909 26.8263 82.0687 22.2703 82.9409 21.5021C85.8743 18.9213 87.0468 20.0569 87.1483 20.8613C84.4105 25.7645 81.1794 31.3812 78.1414 36.4312C78.1474 36.4132 77.1906 37.8764 77.1906 37.8764C75.8488 39.9252 74.4979 41.6816 72.2942 42.9074C71.9799 42.9994 71.4619 43.0361 71.1172 42.7791C70.7022 42.5046 70.5384 42.0471 70.5852 41.5711C70.7172 39.9981 72.319 35.1872 77.2616 28.5272L77.2617 28.5275ZM46.7969 17.4036C43.0044 14.9154 35.382 19.6724 29.277 27.8315C23.694 35.1507 21.2832 43.6574 23.9068 47.5914C27.8096 52.2202 35.0548 45.4874 38.1357 41.8836L38.5332 41.4624C40.6284 39.2119 42.2472 36.5039 43.814 33.9056C43.814 33.9056 45.254 31.5271 45.3228 31.4171C46.2128 31.2531 47.2848 30.9969 48.4928 30.6491C48.4756 30.7036 43.871 38.4431 44.3408 42.2851C44.487 43.4571 44.3753 47.7382 48.5553 49.037C54.1262 49.9708 58.5752 45.6522 62.4992 41.8101C62.4992 41.8101 63.1679 41.1703 63.5462 40.8051C63.4505 41.1883 63.3257 41.6996 63.3257 41.6996C61.6947 47.3715 63.8932 48.5615 65.2685 49.0007C69.4246 50.2089 74.3899 44.1708 74.4059 44.1708C74.2772 46.0727 73.9007 47.6462 75.9057 48.9087C77.7982 49.5862 79.7135 48.5535 81.1692 47.5837C86.4129 43.888 90.6373 38.1038 94.0491 33.1038H91.8726C91.8469 33.1038 86.5018 40.8508 83.0312 42.5346C83.0262 42.5346 82.3942 42.8588 82.0302 42.6023C81.5797 42.2178 81.7574 41.4188 82.0352 40.8528C82.0527 40.8158 95.4361 17.6039 95.4361 17.6039H89.1171C89.1171 17.6039 88.4269 18.7207 88.3706 18.7939C88.3281 18.7574 88.2269 18.5654 88.1566 18.4734C84.2416 13.058 75.3757 21.3879 68.7007 31.0473C66.131 34.7618 62.8593 38.9441 59.4668 41.9633C59.4668 41.9633 54.441 46.5702 52.2936 43.2603C51.5087 41.8695 51.7502 39.8363 52.1929 38.5011C54.6931 31.3839 59.0014 24.9252 63.9038 21.0272C65.2878 19.9484 66.792 19.6364 67.5386 20.094C68.2498 20.5155 68.3646 21.5575 67.9146 22.2711C66.7728 22.2346 65.8581 22.5816 65.1144 23.3501C63.6494 24.8871 63.1404 26.3693 63.6062 27.7601C65.869 30.9801 70.3817 24.6129 70.1634 20.7342C70.0854 19.3434 69.3434 18.0264 68.2362 17.3854C66.586 16.3979 64.0684 16.6536 62.4392 17.4409C60.2582 18.2639 56.8058 21.1361 54.7905 23.3686C52.2535 26.1684 47.9025 29.2784 46.5417 28.9301C46.9875 27.7403 50.6627 20.221 46.7965 17.4042L46.7969 17.4036ZM78.5587 58.1123C71.1167 53.3184 61.0168 52.4772 44.7289 56.9961C27.365 61.0766 21.575 63.6923 13.9721 58.4413C11.0511 55.8618 10.0038 51.7086 10.7859 45.7264C12.5997 35.974 17.5011 26.5885 26.2078 16.1786C31.0676 10.7631 35.5753 6.11565 41.5277 4.24966C46.0897 3.07887 45.6632 6.66415 45.1112 7.17684C44.5287 7.17684 43.5502 7.26864 42.794 7.76209C42.1803 8.23809 40.4955 9.77508 40.405 11.8426C40.2745 15.0075 43.55 14.3487 44.9628 12.6111C46.4856 10.6529 48.736 6.90279 46.9658 3.40782C46.2238 2.16382 44.9418 1.30413 43.35 1.01133C37.8995 0.699833 32.8231 3.29802 28.1381 6.1705C17.8952 13.2875 9.69922 23.1494 5.06225 33.9443C2.38846 40.4575 -0.0295205 49.7872 3.59506 57.3812C6.39884 62.6501 12.2198 65.4489 19.165 64.8636C24.0357 64.3519 29.9249 62.7776 33.8869 61.8271C37.848 60.8752 58.1247 53.905 64.7877 66.0361C64.7877 66.0361 67.0032 61.7353 72.5398 61.6437C77.0918 61.2237 83.6588 62.9614 88.4407 66.4736C86.8475 64.0776 82.3306 60.5465 78.5623 58.1127L78.5587 58.1123Z" fill="#F40009"/>
</svg>
