<svg width="103" height="68" viewBox="0 0 103 68" fill="none" xmlns="http://www.w3.org/2000/svg">
<g clip-path="url(#clip0)">
<path d="M30.2011 29.1686V45.529H24.9931V24.9647L35.745 24.9754C40.3118 24.9754 41.8675 28.1958 41.8675 31.121V45.529H36.6689V31.148C36.6689 29.9226 36.0346 29.1686 34.5046 29.1686H30.2011V29.1686ZM65.6147 28.9229C63.8346 28.9229 62.4569 29.838 61.8815 31.0803C61.5405 31.8262 61.4233 32.3978 61.3832 33.311H69.3955C69.2927 31.0803 68.281 28.9229 65.6147 28.9229ZM61.3832 36.8555C61.3832 39.5194 63.0392 41.48 65.9958 41.48C68.2961 41.48 69.4393 40.8425 70.7694 39.5194L73.9861 42.5906C71.9264 44.6239 69.7653 45.8587 65.9575 45.8587C60.972 45.8587 56.2009 43.1403 56.2009 35.2177C56.2009 28.4484 60.3666 24.6162 65.8403 24.6162C71.3886 24.6162 74.594 29.1028 74.594 34.9795V36.8555H61.3832ZM51.8046 45.5033C47.5619 45.5033 45.7617 42.5499 45.7617 39.6328V19.3618H50.9616V24.9647H54.8815V29.1686H50.9616V39.3069C50.9616 40.5015 51.5257 41.1647 52.7661 41.1647H54.8815V45.5033H51.8046ZM20.3592 22.1228H15.1155V17.1418H20.3592V22.1228ZM20.3724 45.7453C16.4456 45.3679 15.1099 42.9861 15.1099 40.2377L15.1156 24.9647H20.3725V45.7453H20.3724ZM82.8702 45.3059C78.9515 44.9279 77.6221 42.5499 77.6221 39.8052V16.4328H82.8702V45.3059ZM101.217 19.8106C96.4609 -3.37744 51.4493 -4.84538 22.4365 12.8169V14.7668C51.4198 -0.128168 92.5252 -0.0404201 96.2703 21.3168C97.5233 28.3788 93.5438 35.7417 86.4366 39.9738V45.5108C94.991 42.3813 103.764 32.2329 101.217 19.8106ZM48.4783 60.3808C28.4549 62.2317 7.58907 59.3253 4.66949 43.6787C3.24041 35.9655 6.75419 27.789 11.4156 22.7101V19.9943C3.02417 27.3528 -1.53008 36.6687 1.09178 47.6764C4.43821 61.7917 22.3462 69.7908 49.6798 67.1344C60.4944 66.0789 74.6492 62.6015 84.4898 57.2005V49.5273C75.5606 54.8444 60.7846 59.2413 48.4783 60.3808Z" fill="#0071C5"/>
<path d="M88.9358 17.9848C88.9358 17.7303 88.7873 17.6495 88.4476 17.6495H88.1197V18.3697C88.1674 18.3697 88.4056 18.3784 88.4476 18.3784C88.7873 18.3784 88.9358 18.265 88.9358 18.0268V17.9848V17.9848ZM89.4473 19.7705H89.0587C89.0236 19.7705 88.9929 19.7486 88.9778 19.7191L88.4476 18.8203C88.4381 18.8022 88.3924 18.7802 88.3742 18.7802H88.136V19.6715C88.136 19.7191 88.1034 19.7705 88.0408 19.7705H87.6891C87.6453 19.7705 87.6014 19.7191 87.6014 19.6715V17.4169C87.6014 17.2866 87.6522 17.232 87.7625 17.2151C87.8866 17.1988 88.2238 17.1875 88.4056 17.1875C89.0512 17.1875 89.4416 17.3781 89.4416 17.9848V18.0268C89.4416 18.4022 89.2549 18.6003 88.9653 18.6974L89.515 19.627C89.5185 19.6458 89.5313 19.6715 89.5313 19.6934C89.5313 19.7298 89.5093 19.7705 89.4473 19.7705L89.4473 19.7705ZM88.5246 16.7807C87.5682 16.7807 86.7947 17.5705 86.7947 18.5213C86.7947 19.4734 87.5682 20.2506 88.5246 20.2506C89.4761 20.2506 90.2571 19.4734 90.2571 18.5213C90.2571 17.5705 89.4761 16.7807 88.5246 16.7807ZM88.5246 20.6092C87.3626 20.6092 86.4355 19.6715 86.4355 18.5213C86.4355 17.373 87.3626 16.4329 88.5246 16.4329C89.6742 16.4329 90.6188 17.373 90.6188 18.5213C90.6188 19.6715 89.6742 20.6092 88.5246 20.6092Z" fill="#0071C5"/>
</g>
<defs>
<clipPath id="clip0">
<rect width="101.993" height="67.49" fill="white" transform="translate(0.0117188 0.490234)"/>
</clipPath>
</defs>
</svg>
