<svg width="316" height="68" viewBox="0 0 316 68" fill="none" xmlns="http://www.w3.org/2000/svg">
<g clip-path="url(#clip0)">
<path d="M111.542 38.8721L109.659 44.2085H109.502C109.188 43.0052 108.613 41.1741 107.671 38.9768L97.5736 13.6026H87.6855V54.0443H94.2253V29.0887C94.2253 27.5192 94.2253 25.7404 94.173 23.543C94.1206 22.4443 94.016 21.6072 93.9637 20.9794H94.1206C94.4345 22.549 94.8008 23.7 95.0624 24.4324L107.2 53.9397H111.804L123.837 24.1708C124.099 23.4907 124.36 22.1304 124.622 20.9794H124.779C124.622 23.9615 124.517 26.6298 124.465 28.2516V53.8873H131.423V13.498H121.901L111.542 38.8721ZM138.015 24.9033H144.817V53.8873H138.015V24.9033ZM141.468 12.6609C140.317 12.6609 139.376 13.0794 138.591 13.8119C137.806 14.5443 137.387 15.4861 137.387 16.6371C137.387 17.7357 137.806 18.6774 138.591 19.4099C139.376 20.1423 140.317 20.5086 141.468 20.5086C142.619 20.5086 143.613 20.09 144.346 19.4099C145.131 18.6774 145.549 17.7357 145.549 16.6371C145.549 15.5384 145.131 14.5967 144.346 13.8119C143.666 13.0794 142.672 12.6609 141.468 12.6609ZM168.935 24.6417C167.679 24.3801 166.372 24.2231 165.116 24.2231C162.029 24.2231 159.204 24.9033 156.85 26.2635C154.495 27.6238 152.612 29.5072 151.409 31.8615C150.153 34.2682 149.525 37.041 149.525 40.2324C149.525 43.0052 150.153 45.4642 151.356 47.7138C152.56 49.9112 154.234 51.69 156.483 52.8933C158.629 54.0966 161.14 54.7244 163.965 54.7244C167.209 54.7244 169.981 54.0443 172.179 52.7887L172.231 52.7364V46.4582L171.97 46.6675C170.976 47.3999 169.825 48.0277 168.674 48.394C167.47 48.8125 166.372 49.0218 165.43 49.0218C162.709 49.0218 160.564 48.237 159.047 46.5105C157.478 44.8364 156.693 42.5344 156.693 39.6569C156.693 36.6748 157.478 34.3205 159.099 32.594C160.721 30.8675 162.866 29.9781 165.482 29.9781C167.679 29.9781 169.929 30.7105 171.97 32.1754L172.231 32.3847V25.7404L172.179 25.688C171.289 25.3218 170.295 24.9033 168.935 24.6417ZM191.379 24.4324C189.705 24.4324 188.136 24.9556 186.775 26.0543C185.625 26.996 184.84 28.3562 184.16 29.9781H184.107V24.9033H177.306V53.8873H184.107V39.0814C184.107 36.5701 184.63 34.4774 185.781 32.9602C186.932 31.3907 188.397 30.6059 190.176 30.6059C190.804 30.6059 191.432 30.7629 192.217 30.8675C192.949 31.0768 193.472 31.286 193.838 31.5476L194.1 31.7569V24.9556L193.943 24.9033C193.472 24.5894 192.53 24.4324 191.379 24.4324ZM209.9 24.2755C205.139 24.2755 201.32 25.688 198.652 28.4609C195.931 31.2337 194.623 35.0529 194.623 39.8662C194.623 44.3655 195.983 48.0277 198.599 50.696C201.215 53.3118 204.773 54.6721 209.22 54.6721C213.876 54.6721 217.591 53.2595 220.259 50.4344C222.979 47.6092 224.287 43.8423 224.287 39.186C224.287 34.5821 223.032 30.9198 220.468 28.2516C218.009 25.5834 214.399 24.2755 209.9 24.2755ZM215.341 46.5629C214.085 48.1847 212.097 48.9695 209.638 48.9695C207.179 48.9695 205.191 48.1847 203.779 46.4582C202.366 44.8364 201.686 42.4821 201.686 39.4999C201.686 36.4132 202.419 34.0589 203.779 32.3847C205.191 30.7106 207.127 29.8735 209.586 29.8735C211.993 29.8735 213.876 30.6582 215.236 32.2801C216.597 33.9019 217.329 36.2562 217.329 39.343C217.224 42.4821 216.649 44.941 215.341 46.5629ZM239.46 36.9364C237.315 36.047 235.954 35.3668 235.326 34.7913C234.803 34.2682 234.542 33.5357 234.542 32.594C234.542 31.8092 234.856 31.0245 235.64 30.5013C236.425 29.9781 237.315 29.7165 238.622 29.7165C239.773 29.7165 240.977 29.9258 242.128 30.2397C243.279 30.5536 244.325 31.0245 245.162 31.6523L245.424 31.8615V25.4788L245.267 25.4264C244.482 25.1125 243.436 24.7986 242.18 24.537C240.924 24.3278 239.773 24.2231 238.832 24.2231C235.588 24.2231 232.92 25.0079 230.827 26.7344C228.734 28.3562 227.74 30.5536 227.74 33.1172C227.74 34.4774 227.95 35.6807 228.42 36.6748C228.891 37.6688 229.571 38.6105 230.513 39.3953C231.455 40.1278 232.815 40.9648 234.699 41.7496C236.268 42.4297 237.471 42.9529 238.204 43.3715C238.936 43.79 239.407 44.2609 239.773 44.6271C240.035 45.0456 240.192 45.5688 240.192 46.2489C240.192 48.1847 238.727 49.1264 235.745 49.1264C234.594 49.1264 233.391 48.9171 231.978 48.4463C230.566 47.9754 229.258 47.2953 228.159 46.5105L227.897 46.3013V52.9456L228.054 52.9979C229.048 53.4688 230.252 53.7827 231.717 54.1489C233.181 54.4105 234.489 54.6198 235.64 54.6198C239.146 54.6198 242.023 53.835 244.064 52.1085C246.156 50.4344 247.255 48.2893 247.255 45.5165C247.255 43.5807 246.732 41.8542 245.581 40.5463C244.064 39.2907 242.18 37.9827 239.46 36.9364ZM265.2 24.2755C260.439 24.2755 256.62 25.688 253.952 28.4609C251.283 31.2337 249.923 35.0529 249.923 39.8662C249.923 44.3655 251.283 48.0277 253.899 50.696C256.515 53.3118 260.073 54.6721 264.52 54.6721C269.176 54.6721 272.891 53.2595 275.559 50.4344C278.279 47.6092 279.587 43.8423 279.587 39.186C279.587 34.5821 278.332 30.9198 275.768 28.2516C273.309 25.5834 269.699 24.2755 265.2 24.2755ZM270.589 46.5629C269.333 48.1847 267.345 48.9695 264.886 48.9695C262.375 48.9695 260.439 48.1847 259.026 46.4582C257.614 44.8364 256.934 42.4821 256.934 39.4999C256.934 36.4132 257.666 34.0589 259.026 32.3847C260.439 30.7106 262.375 29.8735 264.834 29.8735C267.188 29.8735 269.124 30.6582 270.484 32.2801C271.844 33.9019 272.577 36.2562 272.577 39.343C272.577 42.4821 271.897 44.941 270.589 46.5629ZM315.948 30.5013V24.9033H309.095V16.3231L308.885 16.3755L302.398 18.3112L302.241 18.3635V24.9033H291.987V21.241C291.987 19.5669 292.405 18.2589 293.138 17.4218C293.87 16.5847 294.969 16.1662 296.329 16.1662C297.271 16.1662 298.265 16.3755 299.363 16.8463L299.625 17.0033V11.0914L299.468 11.039C298.526 10.7251 297.271 10.5159 295.649 10.5159C293.608 10.5159 291.83 10.9867 290.208 11.7715C288.586 12.6609 287.383 13.8642 286.493 15.4861C285.604 17.0556 285.133 18.8344 285.133 20.8748V24.9033H280.372V30.449H285.133V53.8873H291.987V30.5013H302.241V45.4119C302.241 51.533 305.118 54.6198 310.873 54.6198C311.815 54.6198 312.809 54.4628 313.751 54.3059C314.745 54.0966 315.477 53.835 315.896 53.6258L315.948 53.5734V47.9754L315.687 48.1847C315.268 48.4463 314.902 48.6556 314.274 48.8125C313.751 48.9695 313.28 49.0218 312.914 49.0218C311.553 49.0218 310.612 48.7079 309.932 47.9231C309.304 47.1907 308.99 45.9874 308.99 44.2085V30.5013H315.948Z" fill="#737373"/>
<path d="M0 0H32.0708V32.0708H0V0Z" fill="#F25022"/>
<path d="M35.4199 0H67.4908V32.0708H35.4199V0Z" fill="#7FBA00"/>
<path d="M0 35.4192H32.0708V67.49H0V35.4192Z" fill="#00A4EF"/>
<path d="M35.4199 35.4192H67.4908V67.49H35.4199V35.4192Z" fill="#FFB900"/>
</g>
<defs>
<clipPath id="clip0">
<rect width="316" height="67.49" fill="white"/>
</clipPath>
</defs>
</svg>
