<svg width="93" height="68" viewBox="0 0 93 68" fill="none" xmlns="http://www.w3.org/2000/svg">
<g clip-path="url(#clip0)">
<path d="M91.3722 65.8448C91.3722 66.8283 90.65 67.4884 89.7952 67.4884V67.4824C88.916 67.4884 88.2072 66.8283 88.2072 65.8451C88.2072 64.8622 88.916 64.2039 89.7952 64.2039C90.6503 64.2037 91.3722 64.8619 91.3722 65.8448ZM92.0119 65.8448C92.0119 64.4952 90.9635 63.7118 89.7952 63.7118C88.6187 63.7118 87.5703 64.4952 87.5703 65.8448C87.5703 67.1937 88.619 67.9802 89.7952 67.9802C90.9638 67.9802 92.0119 67.1937 92.0119 65.8448ZM89.4274 66.0253H89.6648L90.2148 66.991H90.8188L90.2096 65.9846C90.5243 65.9622 90.7833 65.8122 90.7833 65.3885C90.7833 64.8619 90.4203 64.6926 89.8053 64.6926H88.9158V66.991H89.4272V66.0253H89.4274ZM89.4274 65.6362V65.0828H89.7832C89.9767 65.0828 90.2403 65.0984 90.2403 65.3345C90.2403 65.5914 90.1039 65.6362 89.8757 65.6362H89.4274Z" fill="black"/>
<path d="M77.0843 54.0877L79.8482 61.6489H74.2348L77.0843 54.0877ZM74.1243 51.1435L67.7549 67.2816H72.2525L73.26 64.43H80.7978L81.7512 67.2816H86.6339L80.217 51.1415L74.1243 51.1435ZM61.3367 67.2876H65.8998V51.1386L61.3359 51.1375L61.3367 67.2876ZM29.6586 51.1375L25.8515 63.9369L22.2045 51.1386L17.281 51.1375L22.4896 67.2876H29.0635L34.3141 51.1375H29.6586ZM48.1034 54.6541H50.0646C52.9098 54.6541 54.75 55.9315 54.75 59.2465C54.75 62.5622 52.9098 63.8399 50.0646 63.8399H48.1034V54.6541ZM43.5786 51.1375V67.2876H50.9763C54.9177 67.2876 56.2047 66.6325 57.5963 65.1626C58.5793 64.1306 59.2151 61.8659 59.2151 59.3902C59.2151 57.1194 58.6771 55.0954 57.739 53.8342C56.0488 51.5785 53.614 51.1375 49.9803 51.1375H43.5786ZM0.353516 51.1151V67.2876H4.95526V55.0077L8.52085 55.0088C9.70147 55.0088 10.5431 55.303 11.1116 55.9104C11.8327 56.6784 12.1271 57.9182 12.1271 60.1861V67.2876H16.5862V58.3522C16.5862 51.975 12.5215 51.1151 8.54432 51.1151H0.353516ZM36.2346 51.1375L36.2364 67.2876H40.7974V51.1375H36.2346Z" fill="black"/>
<path d="M12.6164 18.9812C12.6164 18.9812 18.4854 10.322 30.2037 9.42614V6.28459C17.2241 7.32699 5.98438 18.32 5.98438 18.32C5.98438 18.32 12.3504 36.7231 30.2037 38.4081V35.0689C17.1021 33.4206 12.6164 18.9812 12.6164 18.9812ZM30.2037 28.428V31.4861C20.3018 29.7207 17.5533 19.4276 17.5533 19.4276C17.5533 19.4276 22.3076 14.1609 30.2037 13.3068V16.6624C30.1977 16.6624 30.1935 16.6606 30.1886 16.6606C26.0443 16.1633 22.8067 20.0348 22.8067 20.0348C22.8067 20.0348 24.6214 26.5523 30.2037 28.428ZM30.2037 0.490234V6.28459C30.5847 6.25538 30.9657 6.23061 31.3488 6.21757C46.1052 5.72023 55.7199 18.32 55.7199 18.32C55.7199 18.32 44.6771 31.7479 33.1723 31.7479C32.1179 31.7479 31.1308 31.6501 30.2037 31.4858V35.0689C30.9965 35.1695 31.8185 35.2287 32.6763 35.2287C43.3822 35.2287 51.1245 29.7612 58.6213 23.29C59.8642 24.2855 64.9529 26.7072 65.9989 27.7674C58.8709 33.7352 42.2584 38.5458 32.8403 38.5458C31.9325 38.5458 31.0607 38.4908 30.2037 38.4081V43.443H70.8961V0.490234H30.2037ZM30.2037 13.3068V9.4264C30.5808 9.40006 30.9608 9.37971 31.3488 9.36746C41.9601 9.03416 48.9218 18.4862 48.9218 18.4862C48.9218 18.4862 41.4025 28.9292 33.3403 28.9292C32.18 28.9292 31.1397 28.7427 30.2034 28.428V16.6624C34.3344 17.1616 35.1658 18.9864 37.6494 23.1265L43.1731 18.469C43.1731 18.469 39.1409 13.1808 32.3438 13.1808C31.6049 13.1805 30.8979 13.2324 30.2037 13.3068Z" fill="#77B900"/>
</g>
<defs>
<clipPath id="clip0">
<rect width="91.6592" height="67.49" fill="white" transform="translate(0.353516 0.490234)"/>
</clipPath>
</defs>
</svg>
