<svg width="368" height="68" viewBox="0 0 368 68" fill="none" xmlns="http://www.w3.org/2000/svg">
<g clip-path="url(#clip0)">
<path d="M99.1259 19.3565C100.11 19.3565 100.954 20.1533 100.954 21.1844V56.1011C100.954 57.0853 100.063 57.882 99.1259 57.882H94.3922C93.5018 57.882 92.6113 57.179 92.6113 56.1948V52.9609C90.221 56.476 86.0966 58.9131 80.0975 58.9131C70.0677 58.9131 63.8811 52.2579 63.8811 42.3687V21.0906C63.8811 20.1064 64.7716 19.3096 65.709 19.3096H70.4427C71.4269 19.3096 72.2237 20.1064 72.2237 21.0906V41.0095C72.2237 47.4305 75.5982 51.6955 82.2534 51.6955C88.7681 51.6955 92.6113 47.2899 92.6113 41.1033V21.0906C92.6113 20.1064 93.5018 19.3096 94.3922 19.3096H99.1259V19.3565ZM29.2925 0C13.0762 0 0 12.6075 0 29.4331C0 46.3056 13.0762 58.8663 29.2925 58.8663C32.0577 58.8663 34.7292 58.4913 37.2601 57.7883L40.4471 65.9902C40.7752 66.8807 41.4314 67.4431 42.6031 67.4431H47.6648C48.8834 67.4431 49.7739 66.6464 49.2114 65.0997L45.0871 54.3669C53.1952 49.2583 58.5851 40.2128 58.5851 29.3863C58.5851 12.6075 45.5089 0 29.2925 0ZM42.0406 46.54L38.3381 36.932C38.01 36.1353 37.3538 35.3854 35.9478 35.3854H31.1204C29.9018 35.3854 28.9645 36.1821 29.5269 37.7288L34.4011 50.3363C32.8076 50.7581 31.0735 50.9456 29.2925 50.9456C17.4349 50.9456 8.99867 41.6188 8.99867 29.4331C8.99867 17.2474 17.4349 7.9207 29.2925 7.9207C41.1501 7.9207 49.5864 17.2474 49.5864 29.4331C49.5864 36.5571 46.7274 42.6499 42.0406 46.54ZM367.117 55.9136C367.539 56.8978 367.024 57.8352 365.852 57.8352H360.556C359.572 57.8352 358.775 57.3665 358.447 56.3823L348.651 30.0424L338.715 56.3823C338.294 57.4134 337.591 57.8352 336.606 57.8352H331.873C330.888 57.8352 330.185 57.4134 329.764 56.3823L319.734 29.9018L309.845 56.3823C309.423 57.3665 308.72 57.8352 307.736 57.8352H302.768C301.783 57.8352 301.08 57.3665 300.659 56.3823L290.863 29.9018L280.74 56.3823C280.318 57.4134 279.615 57.8352 278.631 57.8352H273.897C272.913 57.8352 272.21 57.4134 271.788 56.3823L261.899 29.9018L252.009 56.3823C251.681 57.3665 250.885 57.8352 249.9 57.8352H244.745C243.526 57.8352 243.058 56.8509 243.48 55.9136L256.884 20.8563C257.306 19.8252 258.009 19.3096 258.993 19.3096H264.758C265.742 19.3096 266.445 19.7783 266.867 20.8563L276.521 46.4462L286.083 20.8563C286.504 19.8252 287.207 19.3096 288.192 19.3096H293.863C294.847 19.3096 295.55 19.7783 295.972 20.8563L305.439 46.4462L314.906 20.8563C315.328 19.8252 316.031 19.3096 317.015 19.3096H322.733C323.718 19.3096 324.421 19.7783 324.842 20.8563L334.45 46.4462L343.824 20.8563C344.246 19.8252 344.949 19.3096 345.933 19.3096H351.698C352.682 19.3096 353.385 19.7783 353.807 20.8563L367.117 55.9136ZM145.01 19.3565H140.276C139.292 19.3565 138.448 20.1533 138.448 21.1844V24.3714C136.058 20.7625 131.371 18.1848 125.841 18.1848C115.389 18.1848 106.437 26.4336 106.437 38.4787C106.437 50.6644 115.436 58.8663 125.794 58.8663C131.418 58.8663 135.964 56.2885 138.495 52.6797V56.0542C138.495 57.0384 139.386 57.8352 140.323 57.8352H145.057C146.041 57.8352 146.838 57.0384 146.838 56.0542V21.1844C146.791 20.1533 145.994 19.3565 145.01 19.3565ZM126.731 51.1799C119.842 51.1799 114.92 45.5557 114.92 38.5724C114.92 31.4953 119.795 26.0586 126.731 26.0586C133.574 26.0586 138.542 31.4953 138.542 38.5724C138.495 45.6026 133.527 51.1799 126.731 51.1799ZM201.486 52.3985C202.517 53.6639 201.626 54.6481 201.064 55.07C197.783 57.554 193.424 58.9131 188.691 58.9131C176.739 58.9131 168.772 50.1488 168.772 38.6193C168.772 27.0897 176.739 18.2317 188.691 18.2317C193.424 18.2317 197.736 19.5908 201.064 22.0749C201.626 22.4967 202.423 23.3403 201.486 24.7463L199.236 27.8865C198.346 29.1051 197.314 28.777 196.424 28.2146C194.315 26.9491 191.831 25.8712 188.972 25.8712C181.989 25.8712 177.349 31.4953 177.349 38.6193C177.349 45.7432 181.989 51.3205 188.972 51.3205C191.878 51.3205 194.174 50.1957 196.283 48.9771C197.174 48.5084 198.111 48.0866 199.095 49.3989L201.486 52.3985ZM223.795 18.2785C212.547 18.2785 203.595 27.0897 203.595 38.5724C203.595 50.1488 212.593 58.8663 223.795 58.8663C235.043 58.8663 243.995 50.1019 243.995 38.5724C244.042 27.1366 235.043 18.2785 223.795 18.2785ZM223.795 51.133C216.905 51.133 211.984 45.6026 211.984 38.6193C211.984 31.5422 216.858 26.1055 223.795 26.1055C230.685 26.1055 235.606 31.5422 235.606 38.6193C235.606 45.6026 230.731 51.133 223.795 51.133ZM161.601 1.0311C162.632 1.0311 163.382 1.92159 163.382 2.85895V56.0073C163.382 56.9916 162.679 57.8352 161.601 57.8352H156.867C155.883 57.8352 155.039 56.9447 155.039 56.0073V2.90582C155.039 1.92159 155.93 1.07797 156.867 1.07797H161.601" fill="#3253DC"/>
</g>
<defs>
<clipPath id="clip0">
<rect width="367.258" height="67.49" fill="white"/>
</clipPath>
</defs>
</svg>
