<svg width="141" height="68" viewBox="0 0 141 68" fill="none" xmlns="http://www.w3.org/2000/svg">
<g clip-path="url(#clip0)">
<path d="M68.5061 67.394C64.9288 66.8962 61.2684 64.8559 59.1073 62.1552L58.2815 61.1231L57.8886 61.6252C57.5806 62.0186 57.2977 62.1544 56.5802 62.2531C56.0767 62.3223 55.101 62.6047 54.412 62.8806C53.7217 63.157 52.8271 63.3823 52.4194 63.3823C51.7834 63.3823 51.5915 63.2868 51.0513 62.7016C50.7057 62.3273 50.2314 61.9934 49.9973 61.9596C49.714 61.9186 49.4123 61.6355 49.0948 61.1124C48.2148 59.6628 48.5168 59.122 50.232 59.0755C51.872 59.0311 52.645 58.7536 52.0879 58.4093C51.836 58.2536 46.3063 58.2108 45.7738 58.3604C45.4771 58.4438 45.2066 58.722 45.01 59.1462C44.5877 60.0573 44.1119 60.5357 43.0926 61.074C42.3068 61.489 42.0494 61.5329 40.5783 61.5034C39.0399 61.4725 38.9061 61.4986 38.3957 61.929C37.6479 62.5597 36.8328 62.8729 36.245 62.7553C35.8269 62.6717 35.65 62.7693 35.0902 63.3929L34.4292 64.1292L33.2596 64.022C32.6163 63.963 31.9768 63.9856 31.8384 64.0723C31.5615 64.2456 30.8168 63.9341 30.4491 63.4911C30.2716 63.2772 30.3011 63.0343 30.6064 62.1969C30.9067 61.3733 31.1944 60.9794 32.0377 60.2371C33.1898 59.2229 33.8212 59.0617 34.4417 59.6232C34.861 60.0027 35.2207 59.7897 35.4033 59.0536C35.6041 58.2445 36.166 57.7948 36.9761 57.7948C37.3731 57.7948 37.8441 57.688 38.0228 57.5573C38.3107 57.3468 38.3254 57.2328 38.1524 56.5533C38.0451 56.1318 37.9088 55.4841 37.8497 55.114L37.7421 54.4411L36.9638 54.5578C35.2244 54.8186 33.536 53.8314 32.968 52.2215C32.4859 50.855 32.9701 49.5027 34.4307 48.1365C34.9199 47.6789 35.3202 47.2786 35.3202 47.247C35.3202 47.2154 35.0445 47.1448 34.7074 47.0901C33.9373 46.9651 33.1228 46.3937 32.7858 45.7419C32.4573 45.1067 32.4517 43.9952 32.7747 43.5541C33.0172 43.223 33.049 43.228 34.151 43.7709C34.7715 44.0765 35.583 44.3817 35.9544 44.449C37.4327 44.7169 38.1179 45.3784 38.1077 46.5279C38.0994 47.4751 37.7964 47.9625 36.6906 48.8074C35.0543 50.0577 34.5529 51.2655 35.3425 52.0551C35.6609 52.3735 35.8557 52.4136 36.7083 52.3363C37.7702 52.24 38.9738 51.7261 39.6854 51.0651C40.4649 50.341 42.1071 49.5883 42.9073 49.5883C43.9301 49.5883 44.7208 49.2875 45.4832 48.6083C46.3471 47.8387 47.4006 47.319 48.1032 47.3159C48.7318 47.313 49.0438 47.1619 50.1485 46.3249C50.5528 46.0186 51.6077 45.5267 52.4927 45.2319C53.3778 44.9371 54.3907 44.4995 54.7438 44.2596C55.6631 43.6349 56.9686 43.363 57.7996 43.623L58.4556 43.8284L59.3732 42.7975C61.2971 40.636 64.0025 38.9771 66.8367 38.221C68.5172 37.7727 72.0028 37.6823 73.6464 38.0445C75.2993 38.4087 77.2758 39.2343 78.6591 40.1384C79.8835 40.9386 81.8663 42.7608 82.4015 43.5777C82.6385 43.9394 82.6951 43.9508 83.1287 43.7246C83.9636 43.289 85.348 43.5191 86.4666 44.2792C86.8038 44.5083 87.8038 44.9371 88.6888 45.2319C89.5738 45.5267 90.6288 46.0186 91.0331 46.3249C92.1378 47.1619 92.4497 47.313 93.0784 47.3159C93.781 47.319 94.8345 47.8387 95.6984 48.6083C96.4608 49.2875 97.2515 49.5883 98.2743 49.5883C99.0745 49.5883 100.717 50.341 101.496 51.0651C102.208 51.7261 103.411 52.24 104.473 52.3363C105.326 52.4136 105.521 52.3735 105.839 52.0551C106.629 51.2655 106.127 50.0577 104.491 48.8074C103.385 47.9625 103.082 47.4751 103.074 46.5279C103.064 45.3784 103.749 44.7169 105.227 44.449C105.599 44.3817 106.41 44.0765 107.031 43.7709C108.133 43.228 108.164 43.223 108.407 43.5541C108.73 43.9952 108.724 45.1067 108.396 45.7419C108.059 46.3937 107.244 46.9651 106.474 47.0901C106.137 47.1448 105.861 47.2169 105.861 47.2504C105.861 47.2839 106.22 47.6423 106.659 48.0469C108.159 49.4287 108.693 50.8635 108.214 52.2215C107.646 53.8314 105.957 54.8186 104.218 54.5578L103.439 54.4411L103.332 55.114C103.273 55.4841 103.136 56.1318 103.029 56.5533C102.856 57.2328 102.871 57.3468 103.159 57.5573C103.337 57.688 103.808 57.7948 104.206 57.7948C105.016 57.7948 105.577 58.2445 105.778 59.0536C105.961 59.7897 106.321 60.0027 106.74 59.6232C107.36 59.0617 107.992 59.2229 109.144 60.2371C109.987 60.9794 110.275 61.3733 110.575 62.1969C110.881 63.0343 110.91 63.2772 110.732 63.4911C110.365 63.9341 109.62 64.2456 109.343 64.0723C109.205 63.9856 108.565 63.963 107.922 64.022L106.752 64.1292L106.091 63.3929C105.532 62.7693 105.355 62.6717 104.937 62.7553C104.349 62.8729 103.534 62.5597 102.786 61.929C102.275 61.4986 102.142 61.4725 100.603 61.5034C99.1321 61.5329 98.8748 61.489 98.089 61.074C97.0697 60.5357 96.5939 60.0573 96.1716 59.1462C95.975 58.722 95.7045 58.4438 95.4078 58.3604C94.8753 58.2108 89.3456 58.2536 89.0937 58.4093C88.5366 58.7536 89.3096 59.0311 90.9496 59.0755C92.0523 59.1054 92.5943 59.3677 92.5872 59.8679C92.5849 60.0242 92.3688 60.5449 92.107 61.0251C91.7634 61.6552 91.5095 61.9152 91.1948 61.9596C90.9549 61.9934 90.4759 62.3273 90.1303 62.7016C89.5916 63.2852 89.3972 63.3823 88.7679 63.3823C88.3641 63.3823 87.4288 63.1513 86.6894 62.8689C85.95 62.5866 84.974 62.3071 84.5205 62.2479C83.8838 62.1646 83.6029 62.0211 83.2873 61.6179L82.8787 61.0958L82.1039 62.0791C80.3843 64.2616 77.1584 66.3294 74.3544 67.0466C72.7853 67.4479 70.0576 67.6099 68.5061 67.394Z" fill="#DAA44B"/>
<path d="M32.7261 63.576C32.3024 63.3076 32.6592 62.3475 33.3296 61.952C33.6562 61.7593 33.9233 61.5346 33.9233 61.4527C33.9233 61.3708 34.2778 61.0598 34.7111 60.7618C35.2112 60.4176 35.6553 59.9109 35.9275 59.3737C36.3362 58.5672 36.3979 58.5219 37.2462 58.4052C37.7807 58.3317 38.3209 58.1239 38.5989 57.8847C39.0213 57.5214 39.0425 57.4445 38.8417 57.0038C38.7206 56.7382 38.5532 55.9759 38.4696 55.3099C38.386 54.6439 38.2892 54.0706 38.2546 54.036C38.22 54.0014 37.7616 54.0302 37.2361 54.1C35.349 54.3506 34.3091 53.906 33.6178 52.5531C32.8727 51.095 33.2354 50.0623 35.0762 48.401C36.42 47.1882 36.4475 46.8884 35.2278 46.7509C34.2293 46.6383 33.5933 46.2008 33.1599 45.3282C32.9016 44.8082 32.8725 44.5832 33.0215 44.2563L33.21 43.8425L34.031 44.3014C34.4825 44.5538 35.2504 44.8232 35.7373 44.9002C37.8164 45.2289 38.4144 46.8208 36.9331 48.0834C35.0972 49.6483 34.6096 50.2045 34.5064 50.8513C34.2732 52.3134 35.2084 53.1949 36.8168 53.0289C37.8739 52.9198 38.55 52.6075 39.8115 51.6455C40.867 50.8406 42.4993 50.1223 43.2865 50.1163C44.1492 50.1097 45.3066 49.6243 45.9712 48.9903C46.7895 48.2097 47.2136 48.0122 48.4453 47.8381C49.3125 47.7155 49.6127 47.5744 50.2429 46.9935C50.7932 46.4863 51.3414 46.1943 52.2526 45.9229C52.9418 45.7176 54.0928 45.2405 54.8103 44.8626C56.2599 44.0992 57.2806 43.9744 58.263 44.4406C59.1692 44.8706 62.4592 47.5727 63.1869 48.4846C63.5563 48.9476 64.1127 49.6175 64.4234 49.9733C65.26 50.9316 65.7164 51.9453 65.8929 53.2375C66.1134 54.8524 66.8867 57.2127 67.3638 57.7276C67.5845 57.9657 67.8954 58.4352 68.0546 58.7708C68.2139 59.1064 68.6632 59.6121 69.053 59.8945C69.6114 60.2989 69.7015 60.4311 69.4775 60.5171C69.0232 60.6914 68.3099 60.4338 67.9072 59.9499C66.8309 58.6569 66.3425 58.1436 66.2635 58.2225C66.2153 58.2707 66.2731 58.4275 66.3921 58.5708C66.511 58.7141 66.7052 59.1678 66.8236 59.579C66.9933 60.1686 67.2092 60.4373 67.8449 60.8504C68.7911 61.4652 68.8584 61.6362 68.1545 61.6362C67.4886 61.6362 66.8055 61.3354 66.0885 60.7264C65.4087 60.149 65.3082 60.1379 64.6907 60.5715C64.3698 60.7968 63.7962 60.9329 62.908 60.9947C62.1878 61.0447 61.3064 61.2095 60.9493 61.3609C60.1286 61.7089 59.6884 61.7091 59.3411 61.3618C58.9877 61.0085 58.991 60.3426 59.3487 59.7967C59.6173 59.3867 59.6134 59.3663 59.2669 59.3663C58.8281 59.3663 58.9176 58.9788 59.5089 58.3186C59.7239 58.0786 60.0287 57.6268 60.1862 57.3147L60.4725 56.7472H59.7721C59.3869 56.7472 58.7195 56.8414 58.2891 56.9565C57.8586 57.0716 57.4544 57.1137 57.3907 57.0501C57.327 56.9864 57.412 56.6453 57.5796 56.2922C57.9639 55.4823 58.1594 54.1953 57.871 54.3736C57.7604 54.442 57.6698 54.6779 57.6698 54.8979C57.6698 55.1179 57.4336 55.624 57.1449 56.0226C56.7288 56.597 56.5105 56.7472 56.0918 56.7472C55.5051 56.7472 55.2385 57.1424 55.5166 57.5997C56.5168 59.244 56.6889 59.7358 56.5052 60.4242C56.3012 61.1884 56.4592 61.3168 56.8742 60.7243C57.2761 60.1505 57.208 59.5316 56.6222 58.4338C56.3341 57.8939 56.0984 57.4062 56.0984 57.35C56.0984 57.2938 56.312 57.2727 56.5732 57.3031C57.2848 57.3859 58.1064 58.6858 58.1064 59.7291C58.1064 60.8072 57.4126 61.7453 56.4879 61.9175C56.1296 61.9843 55.1735 62.2626 54.3632 62.536C52.3947 63.2001 52.0751 63.1833 51.3728 62.3783C51.0586 62.0181 50.6491 61.6833 50.4627 61.6341C50.1028 61.5392 48.9885 60.1321 49.1474 59.9732C49.1991 59.9215 49.6351 59.8326 50.1163 59.7756C51.0641 59.6634 50.9735 59.6084 52.1035 60.9814C52.4793 61.438 52.7823 61.636 53.1045 61.6355C53.6331 61.6348 54.6662 61.0583 54.8099 60.6839C54.9681 60.2716 54.3894 59.4989 53.3708 58.7622C52.8451 58.382 52.2419 57.7927 52.0304 57.4527L51.6459 56.8345L51.5586 57.4456L51.4713 58.0567L50.5983 58.0098C50.1181 57.984 48.7824 57.9345 47.63 57.8998C46.4775 57.865 45.4324 57.8272 45.3075 57.8157C44.9095 57.7791 44.5327 56.5858 44.6571 55.7561C44.724 55.3101 44.7015 55.0011 44.6022 55.0011C44.5097 55.0011 44.3794 55.4713 44.3128 56.0459C44.0349 58.4401 42.967 59.3976 40.2092 59.7253C39.2968 59.8337 38.2289 60.0389 37.836 60.1813C37.1108 60.4441 36.1932 61.1632 36.1932 61.4686C36.1932 61.7123 36.3875 61.6738 36.6105 61.3859C36.7171 61.2483 37.1893 60.934 37.6597 60.6875C38.3703 60.3152 38.7511 60.2393 39.9093 60.2393C41.8723 60.2393 42.5718 59.9885 43.6426 58.9007C44.3055 58.2272 44.5893 58.0404 44.7145 58.1953C44.9307 58.4628 44.1117 60.0378 43.6147 60.3102C43.4231 60.4153 43.0302 60.6584 42.7417 60.8504C42.2918 61.15 41.9738 61.1931 40.507 61.1539L38.7968 61.1082L37.9937 61.7214C37.3186 62.2369 37.0492 62.3346 36.3029 62.3346C35.49 62.3346 35.3613 62.3935 34.7767 63.033C34.272 63.5852 34.0152 63.7309 33.5506 63.7288C33.2274 63.7273 32.8564 63.6586 32.7261 63.576ZM63.3548 59.4653C63.6188 59.2705 63.6475 59.1682 63.4845 59.0029C63.3204 58.8364 63.1778 58.8543 62.8241 59.0861C62.3815 59.3761 62.3672 59.7155 62.7977 59.7155C62.9177 59.7155 63.1684 59.6029 63.3548 59.4653ZM65.0033 55.644C65.0033 55.0248 64.0677 53.6043 63.66 53.6043C63.5384 53.6043 63.2786 53.9186 63.0826 54.3027C62.7079 55.0373 62.769 55.1811 63.2652 54.732C63.5355 54.4874 63.6122 54.5047 64.1083 54.9221C64.4417 55.2027 64.6541 55.5452 64.6541 55.8024C64.6541 56.0339 64.7327 56.2234 64.8287 56.2234C64.9247 56.2234 65.0033 55.9626 65.0033 55.644ZM58.1872 49.3837C58.0076 48.7331 57.5747 48.2284 57.3711 48.432C57.3075 48.4956 57.4469 48.9341 57.6809 49.4063C58.1563 50.3657 58.4547 50.3524 58.1872 49.3837ZM106.405 63.033C105.82 62.3935 105.692 62.3346 104.879 62.3346C104.132 62.3346 103.863 62.2369 103.188 61.7214L102.385 61.1082L100.674 61.1539C99.2077 61.1931 98.8897 61.15 98.4398 60.8504C98.1512 60.6584 97.7584 60.4153 97.5667 60.3102C97.0697 60.0378 96.2507 58.4628 96.467 58.1953C96.5922 58.0404 96.876 58.2272 97.5389 58.9007C98.6062 59.9849 99.31 60.2393 101.243 60.2393C102.676 60.2393 103.64 60.5567 104.423 61.2862C104.838 61.6728 104.988 61.7212 104.988 61.4686C104.988 61.1632 104.071 60.4441 103.345 60.1813C102.953 60.0389 101.895 59.8335 100.996 59.725C98.0891 59.3741 97.1823 58.5573 96.866 56.0051C96.7975 55.4529 96.6672 55.0011 96.5763 55.0011C96.4805 55.0011 96.4587 55.3181 96.5243 55.7561C96.6488 56.5858 96.272 57.7791 95.874 57.8157C95.749 57.8272 94.7039 57.865 93.5515 57.8998C92.3991 57.9345 91.0634 57.984 90.5832 58.0098L89.7102 58.0567L89.6229 57.4456L89.5356 56.8345L89.1511 57.4527C88.9396 57.7927 88.3364 58.382 87.8106 58.7622C86.7921 59.4989 86.2134 60.2716 86.3716 60.6839C86.5152 61.0583 87.5484 61.6348 88.077 61.6355C88.3992 61.636 88.7022 61.438 89.078 60.9814C90.208 59.6084 90.1174 59.6634 91.0651 59.7756C91.5464 59.8326 91.9824 59.9215 92.0341 59.9732C92.193 60.1321 91.0787 61.5392 90.7187 61.6341C90.5324 61.6833 90.1228 62.0181 89.8087 62.3783C89.1064 63.1833 88.7868 63.2001 86.8183 62.536C86.008 62.2626 85.0519 61.9843 84.6936 61.9175C83.7689 61.7453 83.0751 60.8072 83.0751 59.7291C83.0751 58.6858 83.8966 57.3859 84.6083 57.3031C84.8694 57.2727 85.0831 57.2938 85.0831 57.35C85.0831 57.4062 84.8474 57.8939 84.5593 58.4338C83.9735 59.5316 83.9054 60.1505 84.3073 60.7243C84.7252 61.321 84.8798 61.1866 84.6718 60.4073C84.5407 59.9162 84.5388 59.6115 84.6657 59.4033C85.366 58.2536 85.8107 57.2498 85.7221 57.0189C85.6596 56.8559 85.4066 56.7472 85.0897 56.7472C84.671 56.7472 84.4526 56.597 84.0365 56.0226C83.7478 55.624 83.5116 55.1179 83.5116 54.8979C83.5116 54.6779 83.4211 54.442 83.3105 54.3736C83.0221 54.1953 83.2175 55.4823 83.6019 56.2922C83.7694 56.6453 83.8545 56.9864 83.7908 57.0501C83.7271 57.1137 83.3228 57.0716 82.8924 56.9565C82.462 56.8414 81.7946 56.7472 81.4094 56.7472H80.709L80.9953 57.3147C81.1528 57.6268 81.4576 58.0786 81.6726 58.3186C82.2639 58.9788 82.3534 59.3663 81.9146 59.3663C81.5681 59.3663 81.5642 59.3867 81.8328 59.7967C82.1905 60.3426 82.1937 61.0085 81.8404 61.3618C81.493 61.7091 81.0528 61.7089 80.2321 61.3609C79.8751 61.2095 78.9937 61.0447 78.2734 60.9947C77.3853 60.9329 76.8116 60.7968 76.4908 60.5715C75.8732 60.1379 75.7728 60.149 75.0929 60.7264C74.376 61.3354 73.6929 61.6362 73.027 61.6362C72.3231 61.6362 72.3904 61.4652 73.3365 60.8504C73.9723 60.4373 74.1882 60.1686 74.3579 59.579C74.4763 59.1678 74.6704 58.7141 74.7894 58.5708C74.9083 58.4275 74.9662 58.2707 74.918 58.2225C74.839 58.1436 74.3506 58.6569 73.2743 59.9499C72.8715 60.4338 72.1583 60.6914 71.704 60.5171C71.48 60.4311 71.5701 60.2989 72.1284 59.8945C72.5183 59.6121 72.9676 59.1064 73.1268 58.7708C73.2861 58.4352 73.597 57.9657 73.8176 57.7276C74.2948 57.2127 75.0681 54.8524 75.2886 53.2375C75.4651 51.9453 75.9214 50.9316 76.7581 49.9733C77.0687 49.6175 77.6252 48.9476 77.9946 48.4846C78.7223 47.5727 82.0122 44.8706 82.9184 44.4406C83.9008 43.9744 84.9216 44.0992 86.3711 44.8626C87.0887 45.2405 88.2396 45.7176 88.9288 45.9229C89.8401 46.1943 90.3883 46.4863 90.9385 46.9935C91.5677 47.5735 91.8696 47.7156 92.7309 47.8373C93.9476 48.0093 94.5848 48.3107 95.2821 49.0442C95.8078 49.5972 96.8221 50.0001 98.1712 50.1918C99.2091 50.3394 100.327 50.8505 101.4 51.6685C102.631 52.6072 103.314 52.9205 104.365 53.0289C105.973 53.1949 106.908 52.3134 106.675 50.8513C106.572 50.2045 106.084 49.6483 104.248 48.0834C102.767 46.8208 103.365 45.2289 105.444 44.9002C105.931 44.8232 106.699 44.5538 107.15 44.3014L107.971 43.8425L108.16 44.2563C108.309 44.5832 108.28 44.8082 108.022 45.3282C107.588 46.2008 106.952 46.6383 105.954 46.7509C104.734 46.8884 104.761 47.1882 106.105 48.401C107.946 50.0623 108.309 51.095 107.564 52.5531C106.872 53.906 105.832 54.3506 103.945 54.1C103.42 54.0302 102.961 54.0014 102.927 54.036C102.892 54.0706 102.796 54.6439 102.712 55.3099C102.628 55.9759 102.461 56.7382 102.34 57.0038C102.139 57.4445 102.16 57.5214 102.583 57.8847C102.861 58.1239 103.401 58.3317 103.935 58.4052C104.784 58.5219 104.845 58.5672 105.254 59.3737C105.526 59.9109 105.97 60.4176 106.47 60.7618C106.904 61.0598 107.258 61.3708 107.258 61.4527C107.258 61.5346 107.525 61.7593 107.852 61.952C108.256 62.1902 108.485 62.482 108.569 62.8641C108.715 63.5273 108.5 63.7248 107.631 63.7288C107.166 63.7309 106.909 63.5852 106.405 63.033ZM78.7052 59.5486C78.7619 59.4567 78.6054 59.2486 78.3573 59.0861C78.0036 58.8543 77.8611 58.8364 77.697 59.0029C77.534 59.1682 77.5626 59.2705 77.8266 59.4653C78.2189 59.7549 78.5578 59.787 78.7052 59.5486ZM76.5274 55.8024C76.5274 55.5452 76.7397 55.2027 77.0731 54.9221C77.5692 54.5047 77.646 54.4874 77.9163 54.732C78.4125 55.1811 78.4736 55.0373 78.0988 54.3027C77.9029 53.9186 77.6431 53.6043 77.5215 53.6043C77.1137 53.6043 76.1781 55.0248 76.1781 55.644C76.1781 55.9626 76.2567 56.2234 76.3528 56.2234C76.4488 56.2234 76.5274 56.0339 76.5274 55.8024ZM83.813 48.4346C83.6084 48.23 83.1753 48.7279 82.9973 49.3726C82.7244 50.3612 82.9875 50.3954 83.4793 49.4352C83.7279 48.9499 83.878 48.4997 83.813 48.4346ZM31.1745 63.4137C31.0018 63.304 31.0034 63.117 31.1822 62.4997C31.3694 61.8528 31.4784 61.7235 31.8357 61.7235C32.1888 61.7235 32.2566 61.8006 32.2193 62.16C32.1522 62.808 31.8133 63.5572 31.5886 63.5542C31.4802 63.5527 31.2939 63.4895 31.1745 63.4137ZM109.202 63.0767C109.095 62.8126 108.987 62.4001 108.962 62.16C108.925 61.8006 108.993 61.7235 109.346 61.7235C109.703 61.7235 109.812 61.8528 109.999 62.4997C110.178 63.117 110.18 63.304 110.007 63.4137C109.621 63.659 109.4 63.5666 109.202 63.0767ZM107.706 60.924C107.079 60.374 107.031 60.0598 107.574 60.0705C107.97 60.0783 108.655 60.6664 108.655 60.9991C108.655 61.497 108.329 61.4712 107.706 60.924ZM32.558 60.9253C32.6287 60.4668 33.4284 59.9714 33.8418 60.1301C34.1221 60.2376 34.1035 60.3017 33.6565 60.7683C33.0656 61.385 32.474 61.4695 32.558 60.9253ZM52.4868 60.4576C52.3226 60.0975 52.1563 59.7392 52.1173 59.6615C52.0783 59.5839 52.4225 59.5446 52.8821 59.5742C53.6412 59.6232 53.7303 59.6752 53.8542 60.1416C54.0181 60.7583 53.7789 61.1124 53.1983 61.1124C52.8908 61.1124 52.7093 60.9453 52.4868 60.4576ZM87.3806 60.8837C87.2641 60.7434 87.2435 60.4566 87.3272 60.1416C87.4512 59.6752 87.5403 59.6232 88.2993 59.5742C88.759 59.5446 89.1031 59.5839 89.0642 59.6615C89.0252 59.7392 88.8589 60.0975 88.6946 60.4576C88.4721 60.9453 88.2906 61.1124 87.9831 61.1124C87.7561 61.1124 87.4849 61.0095 87.3806 60.8837ZM109.092 32.8379C105.681 32.2825 103.136 30.6657 101.98 28.3204L101.409 27.1596L101.359 20.4767L101.31 13.7939H104.284H107.258V19.4277C107.258 25.0214 107.261 25.067 107.673 25.8445C108.774 27.9251 111.529 28.4049 113.324 26.8288C114.549 25.7534 114.583 25.5507 114.588 19.3377L114.592 13.7939H117.566H120.54L120.491 20.4726L120.441 27.1513L119.959 28.1328C118.522 31.0581 115.525 32.7987 111.711 32.9231C110.75 32.9544 109.572 32.9161 109.092 32.8379ZM31.0423 32.1923C27.2585 31.6038 24.0439 28.5392 22.8299 24.3633C22.4846 23.1753 22.559 21.0428 23.0035 19.3893C23.9404 15.9042 26.5728 13.3909 30.2566 12.4644C31.8332 12.0679 34.9659 12.2038 36.5424 12.7371C38.9029 13.5356 40.6819 15.1152 41.6826 17.3009C42.2913 18.6304 42.6797 20.663 42.6181 22.1961L42.5664 23.4846L35.8003 23.5303L29.0343 23.576L29.0382 24.0541C29.0543 26.0656 31.7296 27.9 33.9518 27.4234C35.2204 27.1514 35.9202 26.7787 36.6227 26.0012L37.235 25.3235L39.6749 26.3978L42.1148 27.4721L41.8168 27.9963C40.8699 29.6615 38.648 31.2585 36.4441 31.8578C35.4118 32.1385 32.0393 32.3473 31.0423 32.1923ZM36.5424 19.4617C36.5424 18.2941 35.2063 16.7967 33.8174 16.4078C31.7175 15.8199 29.4264 17.2073 29.0918 19.2696L28.9886 19.9052H32.7655H36.5424V19.4617ZM52.7808 31.9839C51.0583 31.4061 49.923 30.7048 48.6631 29.4403C47.2157 27.9875 46.4677 26.5886 46.0661 24.5833C45.313 20.8225 46.1047 17.8486 48.4992 15.4434C50.6628 13.2702 52.5803 12.4809 55.3802 12.6109C57.3451 12.7022 58.5895 13.0972 60.1087 14.1117C60.6776 14.4915 61.1866 14.7588 61.2398 14.7055C61.293 14.6523 61.3371 11.8522 61.3378 8.48298C61.3385 5.11379 61.3891 1.82682 61.4504 1.1786L61.5617 0H64.4174H67.2732V15.8892V31.7784H64.2176H61.162V30.8181C61.162 29.7741 61.0437 29.6623 60.5345 30.2251C59.1203 31.7877 54.9894 32.7248 52.7808 31.9839ZM58.6791 26.6139C62.1182 24.9002 62.1533 19.7325 58.738 17.9483C55.2479 16.1251 51.3509 19.6671 52.4996 23.6184C53.3249 26.4575 56.1981 27.8503 58.6791 26.6139ZM124.063 16.2821L124.108 0.436517L127.032 0.388643L129.957 0.34077V16.2342V32.1276H126.988H124.019L124.063 16.2821ZM134.497 16.2384V0.349213H137.465H140.433V16.2384V32.1276H137.465H134.497V16.2384ZM82.5949 31.8237L76.1781 31.7741V16.7459V1.71763L82.9442 1.78807C88.8425 1.84948 89.8333 1.89855 90.6705 2.17076C93.669 3.1457 95.1247 4.58641 96.0257 7.47078C96.3946 8.65169 96.4626 9.15271 96.3956 10.1966C96.2951 11.7616 95.5973 13.3724 94.5367 14.4873C94.1389 14.9055 93.815 15.2938 93.8169 15.3502C93.8188 15.4066 94.2262 15.6884 94.7222 15.9765C96.1834 16.8252 97.7469 18.4694 98.3959 19.8399C98.9105 20.9266 98.9633 21.1887 98.9538 22.6116C98.9408 24.5588 98.6623 25.7622 97.8725 27.2847C96.7781 29.3941 94.6765 30.9524 92.1786 31.5065C90.6345 31.849 89.7315 31.8789 82.5949 31.8237ZM90.1959 26.3041C90.9537 25.9857 91.8374 25.0486 92.1002 24.2849C92.3998 23.4143 92.3596 21.6751 92.0252 21.0401C91.6841 20.3925 90.9369 19.6862 90.1995 19.3142C89.543 18.9831 86.4015 18.607 85.3151 18.7294L84.5593 18.8146V16.2426V13.6706L85.8252 13.5628C87.5175 13.4187 88.5725 13.0331 89.2844 12.2986C89.8153 11.751 89.8805 11.5724 89.941 10.5009C90.0237 9.03849 89.6129 8.09664 88.6243 7.48203C88.0155 7.1035 87.7434 7.06678 85.1267 7.00998L82.2894 6.94838V16.7443V26.5402H85.9617C88.6543 26.5402 89.784 26.4772 90.1959 26.3041ZM14.9848 30.9487C14.7001 30.4927 13.2269 28.1653 11.7109 25.7767L8.95456 21.4338V17.9756V14.5175L9.95855 14.413C11.24 14.2797 12.7241 13.8541 13.4522 13.4112C15.301 12.2867 15.3945 9.12323 13.625 7.56957C12.6283 6.6945 11.4572 6.39089 9.04186 6.38139L6.94658 6.37315L6.90178 18.9012L6.85697 31.4292H3.80153H0.746094L0.790721 16.4567L0.835347 1.48416L7.03389 1.43055C11.2553 1.39404 13.5387 1.44139 14.1928 1.57901C16.7798 2.12337 19.0037 3.90449 20.2799 6.45415C22.4033 10.6965 21.3263 14.7274 17.3691 17.3483C16.7265 17.7739 15.732 18.3187 15.1592 18.5589C14.5863 18.7992 14.0967 19.0629 14.0711 19.1449C14.0455 19.2269 15.9875 22.0441 18.3865 25.4053C20.7855 28.7665 22.7484 31.5754 22.7484 31.6475C22.7485 31.7195 21.1181 31.7783 19.1254 31.7781L15.5023 31.7778L14.9848 30.9487Z" fill="#BA2132"/>
</g>
<defs>
<clipPath id="clip0">
<rect width="139.687" height="67.49" fill="white" transform="translate(0.746094)"/>
</clipPath>
</defs>
</svg>
