<svg width="286" height="68" viewBox="0 0 286 68" fill="none" xmlns="http://www.w3.org/2000/svg">
<g clip-path="url(#clip0)">
<path d="M59.3304 38.8602C65.1532 38.8602 73.5778 37.6594 73.5778 30.7335C73.5952 30.199 73.5467 29.6643 73.4335 29.1417L69.9659 14.0798C69.1653 10.7658 68.4625 9.26236 62.6444 6.35331C58.1295 4.04469 48.2946 0.232666 45.3856 0.232666C42.6767 0.232666 41.89 3.72353 38.6598 3.72353C35.5506 3.72353 33.242 1.11702 30.333 1.11702C27.5403 1.11702 25.7204 3.0207 24.3147 6.93512C24.3147 6.93512 20.4003 17.9756 19.8976 19.5767C19.8177 19.8707 19.7832 20.1752 19.7952 20.4797C19.7952 24.7711 36.691 38.8416 59.3304 38.8416V38.8602ZM74.4714 33.5448C75.2767 37.3568 75.2766 37.7571 75.2766 38.2598C75.2766 44.7761 67.9505 48.3926 58.3204 48.3926C36.556 48.4066 17.4912 35.6533 17.4912 27.224C17.49 26.0507 17.7292 24.8896 18.1941 23.8123C10.3652 24.2033 0.232422 25.5996 0.232422 34.5455C0.232422 49.1978 34.9502 67.2572 62.4396 67.2572C83.5151 67.2572 88.8305 57.7248 88.8305 50.1985C88.8305 44.278 83.7106 37.557 74.4807 33.5448" fill="#EE0000"/>
<path d="M74.4724 33.5448C75.2776 37.3568 75.2776 37.7571 75.2776 38.2598C75.2776 44.7761 67.9514 48.3926 58.3213 48.3926C36.557 48.4066 17.4922 35.6533 17.4922 27.224C17.4909 26.0507 17.7301 24.8896 18.195 23.8123L19.8986 19.5953C19.8205 19.8834 19.786 20.1814 19.7962 20.4797C19.7962 24.7711 36.6919 38.8416 59.3313 38.8416C65.1541 38.8416 73.5787 37.6408 73.5787 30.7149C73.5961 30.1804 73.5477 29.6457 73.4344 29.1231L74.4724 33.5448Z" fill="black"/>
<path d="M269.839 43.1936C269.839 48.7278 273.167 51.418 279.236 51.418C281.105 51.3715 282.962 51.1091 284.771 50.6361V44.2176C283.615 44.5839 282.409 44.7661 281.196 44.7575C278.697 44.7575 277.77 43.9755 277.77 41.625V31.7901H285.013V25.1807H277.77V16.8027L269.858 18.5155V25.1807H264.603V31.7901H269.839V43.1936ZM245.17 43.3425C245.17 41.6297 246.888 40.7965 249.48 40.7965C251.065 40.8057 252.643 41.0026 254.181 41.383V44.7109C252.665 45.539 250.961 45.9607 249.234 45.9351C246.692 45.9351 245.17 44.9576 245.17 43.3425ZM247.591 51.5158C250.383 51.5158 252.636 50.9293 254.74 49.5097V51.0783H262.569V34.4804C262.569 28.1689 258.315 24.706 251.216 24.706C247.251 24.706 243.332 25.6369 239.115 27.5452L241.954 33.3726C244.989 32.0973 247.539 31.3153 249.788 31.3153C253.046 31.3153 254.731 32.586 254.731 35.1832V36.4539C252.812 35.9573 250.838 35.7102 248.857 35.7185C242.196 35.7185 238.184 38.5112 238.184 43.5054C238.184 48.0575 241.805 51.5298 247.581 51.5298L247.591 51.5158ZM204.555 51.0922H212.975V37.6641H227.074V51.0783H235.517V16.812H227.106V29.9795H213.008V16.812H204.588L204.555 51.0922ZM172.505 38.1062C172.505 34.3826 175.442 31.5434 179.309 31.5434C181.322 31.5026 183.276 32.2204 184.783 33.5541V42.6071C184.053 43.2971 183.193 43.8358 182.254 44.1921C181.314 44.5484 180.314 44.7152 179.309 44.683C175.493 44.683 172.505 41.8438 172.505 38.1249V38.1062ZM184.89 51.0969H192.724V15.0991L184.811 16.812V26.5538C182.797 25.4119 180.517 24.8211 178.202 24.841C170.666 24.841 164.741 30.6637 164.741 38.1062C164.719 39.8525 165.046 41.5856 165.701 43.2044C166.357 44.8231 167.328 46.2951 168.559 47.5343C169.789 48.7736 171.254 49.7552 172.868 50.4221C174.482 51.0889 176.213 51.4275 177.96 51.418C180.457 51.43 182.892 50.6421 184.909 49.1699L184.89 51.0969ZM148.944 31.185C151.438 31.185 153.542 32.8001 154.375 35.2949H143.577C144.359 32.721 146.318 31.185 148.944 31.185ZM135.599 38.1667C135.599 45.707 141.766 51.581 149.693 51.581C154.05 51.581 157.233 50.4034 160.515 47.6619L155.274 43.0074C154.05 44.2827 152.239 44.9669 150.089 44.9669C148.736 45.005 147.404 44.6328 146.268 43.8991C145.131 43.1655 144.243 42.105 143.721 40.857H162.176V38.8882C162.176 30.6637 156.647 24.7432 149.106 24.7432C147.334 24.7165 145.574 25.0444 143.93 25.7077C142.286 26.371 140.791 27.3563 139.534 28.6057C138.276 29.8551 137.281 31.3433 136.607 32.9828C135.933 34.6224 135.593 36.3801 135.608 38.1528L135.599 38.1667ZM121.948 24.0078C124.74 24.0078 126.304 25.7672 126.304 27.8757C126.304 29.9842 124.74 31.7436 121.948 31.7436H113.621V24.0078H121.948ZM105.191 51.0783H113.611V38.5949H120.021L126.486 51.0783H135.911L128.371 37.3708C130.287 36.5915 131.926 35.2566 133.078 33.5379C134.229 31.8192 134.84 29.7954 134.831 27.7267C134.831 21.5595 129.986 16.812 122.729 16.812H105.191V51.0783Z" fill="black"/>
</g>
<defs>
<clipPath id="clip0">
<rect width="285.32" height="67.49" fill="white"/>
</clipPath>
</defs>
</svg>
