<svg width="310" height="68" viewBox="0 0 310 68" fill="none" xmlns="http://www.w3.org/2000/svg">
<g clip-path="url(#clip0)">
<path d="M33.7428 0C15.1079 0 0 15.1068 0 33.745C0 52.3799 15.1079 67.49 33.7428 67.49C52.3788 67.49 67.4878 52.3799 67.4878 33.745C67.4878 15.1068 52.3799 0 33.7428 0ZM33.7428 63.6806C17.2098 63.6806 3.80499 50.2769 3.80499 33.745C3.80499 17.2098 17.2087 3.80719 33.7428 3.80719C50.2769 3.80719 63.6806 17.2098 63.6806 33.745C63.6806 50.2769 50.2769 63.6806 33.7428 63.6806Z" fill="#48217A"/>
<path d="M58.2692 47.3344L53.3699 41.6132C53.3094 41.544 53.238 41.4846 53.1556 41.4363C52.9051 41.2935 52.6106 41.2902 52.3678 41.4077C51.6195 41.7615 50.7153 41.7549 49.9439 41.3099C49.2572 40.9166 48.8199 40.2529 48.6837 39.5322H48.6848C48.3398 37.6961 47.2278 36.0172 45.4841 35.0119L43.2899 33.7461L55.7641 26.5449L54.2203 23.8694L40.2024 31.9617L38.518 30.9904V29.0445L52.5348 20.9511L50.9911 18.2767L38.518 25.4791V22.9464C38.518 20.9324 37.6192 19.1294 36.2029 17.9141C35.6458 17.4373 35.292 16.7275 35.292 15.9353C35.292 15.0442 35.7381 14.2553 36.4205 13.785C36.6435 13.6334 36.7874 13.3763 36.7874 13.0873C36.7874 12.9917 36.7721 12.8994 36.7435 12.8137L34.2394 5.71134C34.1702 5.50368 33.9746 5.35535 33.745 5.35535C33.5164 5.35535 33.3209 5.50368 33.2516 5.71134L30.7487 12.8137C30.719 12.8994 30.7036 12.9917 30.7036 13.0873C30.7036 13.3763 30.8487 13.6334 31.0695 13.785H31.0706C31.7518 14.2553 32.199 15.0442 32.199 15.9353C32.199 16.7275 31.8463 17.4373 31.2871 17.9141C29.8697 19.1294 28.9731 20.9335 28.9731 22.9464V25.4791L16.4989 18.2767L14.9551 20.9511L28.9731 29.0445V30.9915L27.2887 31.9617L13.2708 23.8694L11.7281 26.5449L24.2023 33.7461L22.007 35.0119C20.2632 36.0172 19.1513 37.6961 18.8074 39.5322C18.6711 40.2529 18.2349 40.9166 17.5482 41.3099C16.7758 41.7549 15.8726 41.7615 15.1233 41.4077C14.8793 41.2913 14.586 41.2935 14.3365 41.4363C14.253 41.4846 14.1805 41.5451 14.1223 41.6132L9.22184 47.3322C9.0779 47.4959 9.04714 47.7377 9.16141 47.9398C9.27568 48.1365 9.50202 48.2321 9.71518 48.1915L17.1186 46.8048C17.2076 46.7872 17.2966 46.7554 17.3779 46.7081C17.6295 46.562 17.7768 46.3104 17.7987 46.0401C17.8658 45.216 18.325 44.4337 19.0964 43.9887C19.7809 43.5954 20.5731 43.5448 21.2664 43.7876C23.0277 44.4073 25.0373 44.2832 26.7811 43.2745L28.9753 42.011V56.4134H32.0628V40.2266L33.7483 39.2542L35.4327 40.2266V56.4123H38.5213V42.0099L40.7144 43.2734C42.4581 44.2821 44.4688 44.4062 46.2301 43.7865C46.9213 43.5426 47.7146 43.5932 48.4002 43.9876C49.1715 44.4326 49.6297 45.2149 49.6967 46.039C49.7176 46.3093 49.8659 46.562 50.1154 46.707C50.1978 46.7543 50.2868 46.7861 50.3758 46.8037L57.7781 48.1904C57.9923 48.231 58.2176 48.1354 58.333 47.9387C58.4439 47.7377 58.4121 47.497 58.2692 47.3344ZM28.972 38.4455L24.8549 40.821C24.0485 41.2869 23.0189 41.01 22.5541 40.2046C22.0894 39.397 22.3652 38.3675 23.1716 37.9016L27.2887 35.525L28.9731 36.4985V38.4455H28.972ZM32.0595 22.5091C32.0595 21.5774 32.8132 20.8225 33.7439 20.8225C34.6745 20.8225 35.4294 21.5774 35.4294 22.5091V27.2612L33.745 28.2325L32.0595 27.2612V22.5091ZM35.6821 34.8635L33.745 35.981L31.8057 34.8624V32.6243L33.745 31.5046L35.6821 32.6243V34.8635ZM44.9347 40.2057C44.4688 41.01 43.4371 41.2869 42.6317 40.8221L38.5158 38.4444V36.4996L40.2002 35.5261L44.3161 37.9027C45.1226 38.3686 45.3984 39.397 44.9347 40.2057Z" fill="#48217A"/>
<path d="M258.415 26.8899H247.153V4.37415H236.865V63.1147H247.153V37.3192H258.415V63.1147H268.927V4.37415H258.415V26.8899Z" fill="#48217A"/>
<path d="M74.998 4.37415L86.4152 40.3925V63.1147H97.8434V39.2256L109.679 4.37415H100.062L92.2925 27.259L85.2593 4.37415H74.998Z" fill="#48217A"/>
<path d="M174.219 4.37415L169.291 32.3166L163.576 4.37415H147.516V63.1147H156.725V18.836L164.585 57.3287H173.186L180.156 18.2108V63.1147H190.955V4.37415H174.219Z" fill="#48217A"/>
<path d="M300.275 4.37415H284.366L273.631 63.1147H283.15L285.427 49.4462H297.268L299.477 63.1147H309.967L300.275 4.37415ZM287.06 39.6541L291.437 13.3828L295.686 39.6541H287.06Z" fill="#48217A"/>
<path d="M206.392 4.37415L195.654 63.1147H205.176L207.455 49.4462H219.296L221.505 63.1147H231.992L222.299 4.37415H206.392ZM209.085 39.6541L213.463 13.3828L217.712 39.6541H209.085Z" fill="#48217A"/>
<path d="M117.039 4.37415L106.301 63.1147H115.824L118.103 49.4462H129.943L132.152 63.1147H142.638L132.946 4.37415H117.039ZM119.733 39.6541L124.111 13.3828L128.358 39.6541H119.733Z" fill="#48217A"/>
</g>
<defs>
<clipPath id="clip0">
<rect width="309.968" height="67.49" fill="white"/>
</clipPath>
</defs>
</svg>
